SplineFontDB: 3.0
FontName: LoyalSansBoldv1
FullName: Loyal Sans Bold
FamilyName: Loyal Sans
Weight: Bold
Copyright: Copyright (c) 2023, Emmet Blanchette
UComments: "2023-12-11: Created with FontForge (http://fontforge.org)"
Version: 001.000
ItalicAngle: 0
UnderlinePosition: -100
UnderlineWidth: 50
Ascent: 800
Descent: 200
InvalidEm: 0
LayerCount: 2
Layer: 0 0 "Back" 1
Layer: 1 0 "Fore" 0
XUID: [1021 65 -877688889 9584006]
FSType: 0
OS2Version: 0
OS2_WeightWidthSlopeOnly: 0
OS2_UseTypoMetrics: 1
CreationTime: 1702354516
ModificationTime: 1703543386
PfmFamily: 33
TTFWeight: 700
TTFWidth: 5
LineGap: 90
VLineGap: 0
OS2TypoAscent: 0
OS2TypoAOffset: 1
OS2TypoDescent: 0
OS2TypoDOffset: 1
OS2TypoLinegap: 90
OS2WinAscent: 0
OS2WinAOffset: 1
OS2WinDescent: 0
OS2WinDOffset: 1
HheadAscent: 0
HheadAOffset: 1
HheadDescent: 0
HheadDOffset: 1
OS2Vendor: 'PfEd'
Lookup: 4 0 1 "'liga' Standard Ligatures in Latin lookup 0" { "'liga' Standard Ligatures in Latin lookup 0-1"  } ['liga' ('DFLT' <'dflt' > 'latn' <'dflt' > ) ]
Lookup: 258 0 0 "'kern' Horizontal Kerning in Latin lookup 0" { "'kern' Horizontal Kerning in Latin lookup 0-1" [75,15,1] } ['kern' ('DFLT' <'dflt' > 'latn' <'dflt' > ) ]
MarkAttachClasses: 1
DEI: 91125

StartChar: A
Encoding: 19 65 0
Width: 491
VWidth: 0
Flags: W
HStem: 0 21G<-0.950195 50.1953 368.619 471.426> 200.36 34.8398<135.893 280.865>
LayerCount: 2
Fore
SplineSet
280.865234375 235.200195312 m 1
 205.955078125 447.614257812 l 1
 135.892578125 235.200195312 l 1
 280.865234375 235.200195312 l 1
5.7998046875 19.1318359375 m 1
 213.098632812 606.684570312 l 2
 215.0078125 612.408203125 219.5234375 616.571289062 224.581054688 618.420898438 c 0
 233.768554688 621.780273438 245.866210938 618.110351562 249.8359375 606.986328125 c 2
 464.388671875 19.2763671875 l 1
 467.854492188 9.7802734375 l 1
 471.42578125 0 l 1
 460.790039062 0 l 1
 450.240234375 0 l 1
 380.959960938 0 l 1
 375.6796875 0 l 1
 370.399414062 0 l 1
 368.619140625 4.970703125 l 1
 366.838867188 9.94140625 l 1
 298.629882812 200.360351562 l 1
 119.2578125 200.360351562 l 1
 51.962890625 10.0009765625 l 1
 50.1953125 5 l 1
 48.427734375 0 l 1
 43.1240234375 0 l 1
 37.8203125 0 l 1
 20 0 l 1
 9.5654296875 0 l 1
 -0.9501953125 0 l 1
 2.474609375 9.70703125 l 1
 5.7998046875 19.1318359375 l 1
EndSplineSet
EndChar

StartChar: B
Encoding: 20 66 1
Width: 466
VWidth: 0
Flags: W
HStem: 0.0400391 49.8604<91.4502 228.958> 363.78 49.8701<91.4502 221.558> 569.78 49.8994<91.4502 247.354>
VStem: -3 94.4502<49.9004 363.78 413.65 569.78> 290.38 94.6299<454.917 535.071> 335.42 94.6094<136.899 271.846>
LayerCount: 2
Fore
SplineSet
290.379882812 495.299804688 m 0xf8
 290.379882812 550.692382812 197.020507812 569.780273438 143.069335938 569.780273438 c 2
 91.4501953125 569.780273438 l 1
 91.4501953125 413.650390625 l 1
 107.779296875 413.650390625 l 2
 211.09375 413.650390625 290.379882812 445.77734375 290.379882812 495.299804688 c 0xf8
91.4501953125 363.780273438 m 1
 91.4501953125 49.900390625 l 1
 107.779296875 49.900390625 l 2
 262.09765625 49.900390625 335.419921875 131.229492188 335.419921875 206.83984375 c 0xf4
 335.419921875 284.813476562 245.5 363.780273438 107.779296875 363.780273438 c 2
 91.4501953125 363.780273438 l 1
179.389648438 619.6796875 m 2
 274.918945312 619.6796875 385.009765625 594.870117188 385.009765625 497.896484375 c 0xf8
 385.009765625 433.930664062 333.520507812 400.288085938 284.044921875 384.680664062 c 1
 357.209960938 359.841796875 430.021484375 303.856445312 430.029296875 208.125 c 0
 430.029296875 173.27734375 425.194335938 120.177734375 382.534179688 76.1708984375 c 0
 339.075195312 31.2548828125 245.903320312 0.0400390625 107.790039062 0.0400390625 c 2
 12 0.0400390625 l 1
 4.5 0.0400390625 l 1
 -3 0.0400390625 l 1
 -3 7.3603515625 l 1
 -3 14.505859375 l 1
 -3 604.859375 l 1
 -3 612.1796875 l 1
 -3 619.6796875 l 1
 4.5 619.6796875 l 1
 12 619.6796875 l 1
 179.389648438 619.6796875 l 2
EndSplineSet
EndChar

StartChar: C
Encoding: 21 67 2
Width: 589
VWidth: 0
Flags: W
HStem: 422.667 21G<491.867 500.597> 577.89 55.6299<230.869 404.719>
VStem: -1 94.6299<186.648 413.169>
LayerCount: 2
Fore
SplineSet
464.609375 8.8505859375 m 0
 341.439453125 -91.0625 172.091796875 -39.091796875 96.9833984375 38.927734375 c 0
 36.5166015625 101.74609375 -1 193.461914062 -1 296.969726562 c 0
 -1 504.5 127.743164062 633.51953125 305.959960938 633.51953125 c 0
 424.748046875 633.51953125 515.72265625 571.552734375 532.333007812 444.50390625 c 2
 533.256835938 437.440429688 l 1
 534.180664062 430.376953125 l 1
 527.173828125 429.091796875 l 1
 520.16796875 427.805664062 l 1
 520.16796875 427.805664062 511.21484375 426.1640625 507.565429688 425.438476562 c 2
 500.596679688 424.052734375 l 1
 493.627929688 422.666992188 l 1
 491.8671875 429.55078125 l 1
 490.107421875 436.434570312 l 2
 465.642578125 532.103515625 406.05859375 577.889648438 311.330078125 577.889648438 c 0
 182.127929688 577.889648438 93.6298828125 435.930664062 93.6298828125 300.580078125 c 0
 93.6298828125 174.752929688 167.702148438 76.83984375 231.135742188 39.7080078125 c 0
 292.274414062 3.7353515625 421.879882812 18.9892578125 466.947265625 98.5703125 c 0
 472.540039062 108.537109375 481.610351562 131.73828125 486.225585938 151.958007812 c 2
 487.556640625 157.7890625 l 1
 488.887695312 163.620117188 l 1
 494.869140625 163.620117188 l 1
 500.849609375 163.620117188 l 1
 524.859375 163.620117188 l 1
 533.1796875 163.620117188 l 1
 541.499023438 163.620117188 l 1
 540.638671875 155.344726562 l 1
 539.779296875 147.069335938 l 2
 534.1484375 92.8994140625 509.577148438 45.3486328125 464.609375 8.8505859375 c 0
EndSplineSet
EndChar

StartChar: D
Encoding: 22 68 3
Width: 522
VWidth: 0
Flags: W
HStem: 0 49.8604<93.4697 225.747> 569.78 49.8994<93.4697 234.54>
VStem: -1 94.4697<49.8604 569.78> 366.6 100.471<207.728 431.859>
LayerCount: 2
Fore
SplineSet
93.4697265625 569.780273438 m 1
 93.4697265625 49.8603515625 l 1
 143.450195312 49.8603515625 l 2
 267.84375 49.8603515625 366.58984375 183.450195312 366.599609375 315.932617188 c 0
 366.599609375 482.791992188 266.508789062 569.780273438 143.450195312 569.780273438 c 2
 93.4697265625 569.780273438 l 1
6.5 619.6796875 m 1
 14 619.6796875 l 1
 143.450195312 619.6796875 l 2
 379.96484375 619.6796875 467.080078125 478.236328125 467.0703125 338.15234375 c 0
 467.0703125 216.80078125 428.134765625 131.42578125 367.071289062 76.9619140625 c 0
 306.12109375 22.505859375 225.016601562 0 143.440429688 0 c 2
 14 0 l 1
 6.5 0 l 1
 -1 0 l 1
 -1 7.5 l 1
 -1 14.818359375 l 1
 -1 604.861328125 l 1
 -1 612.1796875 l 1
 -1 619.6796875 l 1
 6.5 619.6796875 l 1
EndSplineSet
EndChar

StartChar: E
Encoding: 23 69 4
Width: 465
VWidth: 0
Flags: W
HStem: 0 49.8799<95.46 414.857> 306.89 49.8799<95.46 299.609> 569.8 49.8799<95.46 416.175>
VStem: 1 94.46<49.8799 306.89 356.77 569.8>
LayerCount: 2
Fore
SplineSet
284.609375 306.889648438 m 1
 95.4599609375 306.889648438 l 1
 95.4599609375 49.8798828125 l 1
 405.5390625 49.8798828125 l 1
 414.413085938 49.8798828125 l 1
 423.286132812 49.8798828125 l 1
 421.807617188 41.1298828125 l 1
 420.329101562 32.380859375 l 1
 416.969726562 12.5009765625 l 1
 415.9140625 6.25 l 1
 414.857421875 0 l 1
 408.518554688 0 l 1
 402.1796875 0 l 1
 16 0 l 1
 8.5 0 l 1
 1 0 l 1
 1 7.5 l 1
 1 14.818359375 l 1
 1 604.861328125 l 1
 1 612.1796875 l 1
 1 619.6796875 l 1
 8.5 619.6796875 l 1
 16 619.6796875 l 1
 402.1796875 619.6796875 l 1
 409.176757812 619.6796875 l 1
 416.174804688 619.6796875 l 1
 416.659179688 612.69921875 l 1
 417.143554688 605.71875 l 1
 418.5234375 585.838867188 l 1
 419.080078125 577.819335938 l 1
 419.63671875 569.799804688 l 1
 411.598632812 569.799804688 l 1
 403.559570312 569.799804688 l 1
 95.4599609375 569.799804688 l 1
 95.4599609375 356.76953125 l 1
 284.609375 356.76953125 l 1
 292.109375 356.76953125 l 1
 299.609375 356.76953125 l 1
 299.609375 349.26953125 l 1
 299.609375 341.76953125 l 1
 299.609375 321.889648438 l 1
 299.609375 314.389648438 l 1
 299.609375 306.889648438 l 1
 292.109375 306.889648438 l 1
 284.609375 306.889648438 l 1
EndSplineSet
EndChar

StartChar: F
Encoding: 24 70 5
Width: 462
VWidth: 0
Flags: W
HStem: 0 21G<1 95.46> 306.89 49.8799<95.46 299.609> 569.8 49.8799<95.46 414.857>
VStem: 1 94.46<0 306.89 356.77 569.8>
LayerCount: 2
Fore
SplineSet
414.857421875 619.6796875 m 1
 415.9140625 613.4296875 l 1
 416.969726562 607.178710938 l 1
 420.329101562 587.298828125 l 1
 421.807617188 578.549804688 l 1
 423.286132812 569.799804688 l 1
 414.413085938 569.799804688 l 1
 405.5390625 569.799804688 l 1
 95.4599609375 569.799804688 l 1
 95.4599609375 356.76953125 l 1
 284.609375 356.76953125 l 1
 292.109375 356.76953125 l 1
 299.609375 356.76953125 l 1
 299.609375 349.26953125 l 1
 299.609375 341.76953125 l 1
 299.609375 321.889648438 l 1
 299.609375 314.389648438 l 1
 299.609375 306.889648438 l 1
 292.109375 306.889648438 l 1
 284.609375 306.889648438 l 1
 95.4599609375 306.889648438 l 1
 95.4599609375 14.81640625 l 1
 95.4599609375 7.5 l 1
 95.4599609375 0 l 1
 87.9599609375 0 l 1
 80.4599609375 0 l 1
 16 0 l 1
 8.5 0 l 1
 1 0 l 1
 1 7.5 l 1
 1 14.818359375 l 1
 1 604.861328125 l 1
 1 612.1796875 l 1
 1 619.6796875 l 1
 8.5 619.6796875 l 1
 16 619.6796875 l 1
 402.1796875 619.6796875 l 1
 408.518554688 619.6796875 l 1
 414.857421875 619.6796875 l 1
EndSplineSet
EndChar

StartChar: G
Encoding: 25 71 6
Width: 587
VWidth: 0
Flags: W
HStem: 577.97 55.5498<222.999 391.742>
VStem: 0.84082 95.0498<195.92 418.282> 437 94.96<111.737 321.34>
LayerCount: 2
Fore
SplineSet
486.53125 412.2109375 m 1
 484.627929688 418.502929688 l 1
 482.723632812 424.794921875 l 2
 448.000976562 539.518554688 383.301757812 577.9609375 305.55078125 577.969726562 c 0
 164.680664062 577.969726562 95.890625 414.559570312 95.890625 305.829101562 c 0
 95.890625 188.297851562 164.006835938 99.8447265625 228.852539062 64.134765625 c 0
 231.139648438 62.873046875 233.47265625 61.673828125 235.848632812 60.5380859375 c 0
 296.163085938 31.703125 380.518554688 44.5 419.345703125 118.495117188 c 0
 432.875976562 144.180664062 436.91015625 187.395507812 436.91015625 211.31640625 c 2
 437 306.8984375 l 1
 437.006835938 314.032226562 l 1
 437.013671875 321.33984375 l 1
 444.506835938 321.33984375 l 1
 452 321.33984375 l 1
 516.959960938 321.33984375 l 1
 524.466796875 321.33984375 l 1
 531.973632812 321.33984375 l 1
 531.966796875 314.018554688 l 1
 531.959960938 306.872070312 l 1
 531.870117188 211.302734375 l 2
 531.870117188 122.822265625 501.85546875 70.2294921875 458.327148438 34.650390625 c 0
 401.776367188 -11.4326171875 327.509765625 -16.0302734375 299.270507812 -16.0302734375 c 0
 246.622070312 -16.0302734375 166.177734375 -2.5859375 97.3134765625 62.599609375 c 0
 36.3154296875 120.452148438 0.8408203125 206.619140625 0.8408203125 303.610351562 c 0
 0.8408203125 400.834960938 34.9140625 497.966796875 96.5029296875 555.930664062 c 0
 173.497070312 628.2734375 250.473632812 633.51953125 305.890625 633.51953125 c 0
 409.984375 633.51953125 508.994140625 563.620117188 524.624023438 432.901367188 c 2
 525.487304688 425.685546875 l 1
 526.349609375 418.470703125 l 1
 519.165039062 417.379882812 l 1
 511.981445312 416.290039062 l 1
 511.981445312 416.290039062 504.623046875 415.17578125 499.505859375 414.336914062 c 2
 493.018554688 413.274414062 l 1
 486.53125 412.2109375 l 1
EndSplineSet
EndChar

StartChar: H
Encoding: 26 72 7
Width: 532
VWidth: 0
Flags: W
HStem: 0 21G<0 94.4707 375.431 469.98> 303.45 49.8799<94.4707 375.431> 599.68 20G<0 94.4707 375.431 469.98>
VStem: 0 94.4707<0 303.45 353.33 619.68> 375.431 94.5498<0 303.45 353.33 619.68>
LayerCount: 2
Fore
SplineSet
469.98046875 619.6796875 m 1
 469.98046875 612.1796875 l 1
 469.98046875 604.861328125 l 1
 469.98046875 14.818359375 l 1
 469.98046875 7.5 l 1
 469.98046875 0 l 1
 462.48046875 0 l 1
 454.98046875 0 l 1
 390.430664062 0 l 1
 382.930664062 0 l 1
 375.430664062 0 l 1
 375.430664062 7.5 l 1
 375.430664062 14.814453125 l 1
 375.430664062 303.450195312 l 1
 94.470703125 303.450195312 l 1
 94.470703125 14.814453125 l 1
 94.470703125 7.5 l 1
 94.470703125 0 l 1
 86.970703125 0 l 1
 79.470703125 0 l 1
 15 0 l 1
 7.5 0 l 1
 0 0 l 1
 0 7.5 l 1
 0 14.818359375 l 1
 0 604.861328125 l 1
 0 612.1796875 l 1
 0 619.6796875 l 1
 7.5 619.6796875 l 1
 15 619.6796875 l 1
 79.470703125 619.6796875 l 1
 86.970703125 619.6796875 l 1
 94.470703125 619.6796875 l 1
 94.470703125 612.1796875 l 1
 94.470703125 604.890625 l 1
 94.470703125 353.330078125 l 1
 375.430664062 353.330078125 l 1
 375.430664062 604.890625 l 1
 375.430664062 612.1796875 l 1
 375.430664062 619.6796875 l 1
 382.930664062 619.6796875 l 1
 390.430664062 619.6796875 l 1
 454.98046875 619.6796875 l 1
 462.48046875 619.6796875 l 1
 469.98046875 619.6796875 l 1
EndSplineSet
EndChar

StartChar: I
Encoding: 27 73 8
Width: 152
VWidth: 0
Flags: W
HStem: 0 21G<0 94.5498> 599.68 20G<0 94.5498>
VStem: 0 94.5498<0 619.68>
LayerCount: 2
Fore
SplineSet
0 0 m 1
 0 7.5 l 1
 0 14.818359375 l 1
 0 604.861328125 l 1
 0 612.1796875 l 1
 0 619.6796875 l 1
 7.5 619.6796875 l 1
 15 619.6796875 l 1
 79.5498046875 619.6796875 l 1
 87.0498046875 619.6796875 l 1
 94.5498046875 619.6796875 l 1
 94.5498046875 612.1796875 l 1
 94.5498046875 604.861328125 l 1
 94.5498046875 14.818359375 l 1
 94.5498046875 7.5 l 1
 94.5498046875 0 l 1
 87.0498046875 0 l 1
 79.5498046875 0 l 1
 15 0 l 1
 7.5 0 l 1
 0 0 l 1
EndSplineSet
EndChar

StartChar: J
Encoding: 28 74 9
Width: 293
VWidth: 0
Flags: W
HStem: 599.68 20G<110 204.55>
VStem: 110 94.5498<-30.6245 619.68>
LayerCount: 2
Fore
SplineSet
4.97265625 -145.442382812 m 1
 3.50390625 -137.060546875 l 1
 2.03515625 -128.6796875 l 1
 -1.4052734375 -109.049804688 l 1
 -2.513671875 -102.727539062 l 1
 -3.62109375 -96.40625 l 1
 2.453125 -94.3349609375 l 1
 8.5498046875 -92.2548828125 l 2
 92.37890625 -64.833984375 110 2.2216796875 110 55.123046875 c 2
 110 604.8359375 l 1
 110 612.1796875 l 1
 110 619.6796875 l 1
 117.5 619.6796875 l 1
 125 619.6796875 l 1
 189.549804688 619.6796875 l 1
 197.049804688 619.6796875 l 1
 204.549804688 619.6796875 l 1
 204.549804688 612.1796875 l 1
 204.549804688 604.826171875 l 1
 204.549804688 103.514648438 l 2
 204.549804688 69.1943359375 203.069335938 40.986328125 200.126953125 15.662109375 c 0
 190.387695312 -62.8818359375 125.036132812 -109.618164062 21.2138671875 -140.428710938 c 2
 13.103515625 -142.932617188 l 1
 4.97265625 -145.442382812 l 1
EndSplineSet
EndChar

StartChar: K
Encoding: 29 75 10
Width: 489
VWidth: 0
Flags: W
HStem: 0 21G<0 94.46 332.272 459.562> 599.68 20G<0 94.46 357.875 428.665>
VStem: 0 94.46<0 276.664 337.325 619.68>
LayerCount: 2
Fore
SplineSet
416.435546875 607.278320312 m 1
 404.556640625 595.231445312 l 1
 155.014648438 342.1640625 l 1
 438.2890625 23.9013671875 l 1
 448.76953125 12.1259765625 l 1
 459.5625 0 l 1
 443.108398438 0 l 1
 426.909179688 0 l 1
 341.359375 0 l 1
 337.9375 0 l 1
 334.515625 0 l 1
 332.272460938 2.5849609375 l 1
 330.029296875 5.169921875 l 1
 94.4599609375 276.6640625 l 1
 94.4599609375 15 l 1
 94.4599609375 7.5 l 1
 94.4599609375 0 l 1
 86.9599609375 0 l 1
 79.4599609375 0 l 1
 15 0 l 1
 7.5 0 l 1
 0 0 l 1
 0 7.5 l 1
 0 14.818359375 l 1
 0 604.861328125 l 1
 0 612.1796875 l 1
 0 619.6796875 l 1
 7.5 619.6796875 l 1
 15 619.6796875 l 1
 79.4599609375 619.6796875 l 1
 86.9599609375 619.6796875 l 1
 94.4599609375 619.6796875 l 1
 94.4599609375 612.1796875 l 1
 94.4599609375 604.6796875 l 1
 94.4599609375 337.325195312 l 1
 355.654296875 614.958007812 l 1
 357.875 617.318359375 l 1
 360.095703125 619.6796875 l 1
 363.337890625 619.6796875 l 1
 366.579101562 619.6796875 l 1
 393.689453125 619.6796875 l 1
 411.033203125 619.6796875 l 1
 428.665039062 619.6796875 l 1
 416.435546875 607.278320312 l 1
EndSplineSet
EndChar

StartChar: L
Encoding: 30 76 11
Width: 455
VWidth: 0
Flags: W
HStem: 0 49.8799<94.46 413.857> 599.68 20G<0 94.46>
VStem: 0 94.46<49.8799 619.68>
LayerCount: 2
Fore
SplineSet
422.286132812 49.8798828125 m 1
 420.807617188 41.1298828125 l 1
 419.329101562 32.380859375 l 1
 415.969726562 12.5009765625 l 1
 414.9140625 6.25 l 1
 413.857421875 0 l 1
 407.518554688 0 l 1
 401.1796875 0 l 1
 15 0 l 1
 7.5 0 l 1
 0 0 l 1
 0 7.5 l 1
 0 14.818359375 l 1
 0 604.861328125 l 1
 0 612.1796875 l 1
 0 619.6796875 l 1
 7.5 619.6796875 l 1
 15 619.6796875 l 1
 79.4599609375 619.6796875 l 1
 86.9599609375 619.6796875 l 1
 94.4599609375 619.6796875 l 1
 94.4599609375 612.1796875 l 1
 94.4599609375 604.875 l 1
 94.4599609375 49.8798828125 l 1
 404.5390625 49.8798828125 l 1
 413.413085938 49.8798828125 l 1
 422.286132812 49.8798828125 l 1
EndSplineSet
EndChar

StartChar: M
Encoding: 31 77 12
Width: 634
VWidth: 0
Flags: W
HStem: 0 21G<0.519531 50.3096 473.451 568.003> 599.68 20G<0.519531 79.8125 489.718 568.009>
VStem: 0.519531 49.79<0 481.993> 473.45 94.5508<0 458.072>
LayerCount: 2
Fore
SplineSet
568.004882812 612.174804688 m 1
 568 604.849609375 l 1
 567.919921875 478.831054688 l 1
 568 13.447265625 l 1
 568.000976562 7.322265625 l 1
 568.002929688 0 l 1
 560.500976562 0 l 1
 553 0 l 1
 488.450195312 0 l 1
 480.951171875 0 l 1
 473.452148438 0 l 1
 473.451171875 7.4990234375 l 1
 473.450195312 7.4990234375 l 1
 473.381835938 458.072265625 l 1
 290.276367188 7.5 l 1
 283.762695312 5.9765625 l 1
 277.25 -10.05078125 l 1
 270.00390625 5.658203125 l 1
 262.758789062 21.3681640625 l 1
 50.3095703125 481.993164062 l 1
 50.3095703125 15 l 1
 50.3095703125 7.5 l 1
 50.3095703125 0 l 1
 42.8095703125 0 l 1
 35.3095703125 0 l 1
 15.51953125 0 l 1
 8.01953125 0 l 1
 0.51953125 0 l 1
 0.51953125 7.5 l 1
 0.51953125 14.818359375 l 1
 0.51953125 604.861328125 l 1
 0.51953125 612.1796875 l 1
 0.51953125 619.6796875 l 1
 8.01953125 619.6796875 l 1
 15.51953125 619.6796875 l 1
 68.189453125 619.6796875 l 1
 72.9970703125 619.6796875 l 1
 77.8056640625 619.6796875 l 1
 79.8125 615.310546875 l 1
 81.8203125 610.94140625 l 1
 297.236328125 142.036132812 l 1
 487.81640625 610.333984375 l 1
 489.717773438 615.006835938 l 1
 491.620117188 619.6796875 l 1
 496.665039062 619.6796875 l 1
 501.709960938 619.6796875 l 1
 553 619.6796875 l 1
 560.504882812 619.6796875 l 1
 568.008789062 619.6796875 l 1
 568.004882812 612.174804688 l 1
EndSplineSet
EndChar

StartChar: N
Encoding: 32 78 13
Width: 565
VWidth: 0
Flags: W
HStem: 0 21G<-0.270508 49.5303> 599.68 20G<-0.270508 83.3887 445.21 495>
VStem: -0.270508 49.8008<0 533.605> 445.21 49.79<129.903 619.68>
LayerCount: 2
Fore
SplineSet
445.209960938 619.6796875 m 1
 452.709960938 619.6796875 l 1
 460.209960938 619.6796875 l 1
 480 619.6796875 l 1
 487.5 619.6796875 l 1
 495 619.6796875 l 1
 495 612.1796875 l 1
 495 604.861328125 l 1
 495 6.3095703125 l 1
 495 -1.1904296875 l 1
 495 -8.6904296875 l 1
 487.5 -8.6904296875 l 1
 480 -8.6904296875 l 1
 460.379882812 -8.6904296875 l 1
 456.611328125 -8.6904296875 l 1
 452.841796875 -8.6904296875 l 1
 450.592773438 -5.666015625 l 1
 448.34375 -2.6416015625 l 1
 49.5302734375 533.60546875 l 1
 49.5302734375 15 l 1
 49.5302734375 7.5 l 1
 49.5302734375 0 l 1
 42.0302734375 0 l 1
 34.5302734375 0 l 1
 14.7294921875 0 l 1
 7.2294921875 0 l 1
 -0.2705078125 0 l 1
 -0.2705078125 7.5 l 1
 -0.2705078125 14.818359375 l 1
 -0.2705078125 604.861328125 l 1
 -0.2705078125 612.1796875 l 1
 -0.2705078125 619.6796875 l 1
 7.2294921875 619.6796875 l 1
 14.7294921875 619.6796875 l 1
 73.599609375 619.6796875 l 1
 77.3701171875 619.6796875 l 1
 81.1396484375 619.6796875 l 1
 83.388671875 616.654296875 l 1
 85.6376953125 613.627929688 l 1
 445.209960938 129.903320312 l 1
 445.209960938 604.6796875 l 1
 445.209960938 612.1796875 l 1
 445.209960938 619.6796875 l 1
EndSplineSet
EndChar

StartChar: O
Encoding: 33 79 14
Width: 563
VWidth: 0
Flags: W
HStem: -16.0596 51.0791<203.575 331.008> 583.15 50.3691<197.692 332.166>
VStem: 0.740234 95.71<171.915 446.696> 433.95 95.7002<179.022 449.172>
LayerCount: 2
Fore
SplineSet
257.650390625 -16.0595703125 m 0
 63.05078125 -16.0595703125 0.740234375 166.799804688 0.740234375 309.551757812 c 0
 0.740234375 429.888671875 51.0556640625 633.51953125 265.209960938 633.51953125 c 0
 450.5625 633.51953125 529.66015625 486.563476562 529.650390625 309.551757812 c 0
 529.650390625 200.711914062 493.3046875 -16.0595703125 257.650390625 -16.0595703125 c 0
433.950195312 307.021484375 m 0
 433.950195312 460.951171875 369.266601562 583.150390625 263 583.150390625 c 0
 153.504882812 583.150390625 96.4501953125 443.170898438 96.4501953125 307.021484375 c 0
 96.4501953125 160.001953125 164.41015625 35.01953125 275.83984375 35.01953125 c 0
 355.096679688 35.01953125 433.950195312 158.038085938 433.950195312 307.021484375 c 0
EndSplineSet
EndChar

StartChar: P
Encoding: 34 80 15
Width: 462
VWidth: 0
Flags: W
HStem: 0 21G<0 94.46> 206.36 49.6992<94.4902 238.989> 569.39 50.29<94.4902 241.963>
VStem: 0 94.4902<0 206.36 256.06 569.39>
LayerCount: 2
Fore
SplineSet
327.630859375 412.834960938 m 0
 327.630859375 484.912109375 269.260742188 569.389648438 153.990234375 569.389648438 c 2
 94.490234375 569.389648438 l 1
 94.490234375 256.059570312 l 1
 120.30078125 256.059570312 l 2
 289.99609375 256.059570312 327.630859375 344.831054688 327.630859375 412.834960938 c 0
15 619.6796875 m 1
 148.400390625 619.6796875 l 2
 234.87109375 619.6796875 341.142578125 614.4140625 402.481445312 501.080078125 c 0
 440.671875 430.50390625 424.498046875 338.565429688 381.587890625 288.911132812 c 0
 313.475585938 210.123046875 243.374023438 206.360351562 111.48046875 206.360351562 c 2
 94.4599609375 206.360351562 l 1
 94.4599609375 14.7275390625 l 1
 94.4599609375 7.5 l 1
 94.4599609375 0 l 1
 86.9599609375 0 l 1
 79.4599609375 0 l 1
 15 0 l 1
 7.5 0 l 1
 0 0 l 1
 0 7.5 l 1
 0 14.818359375 l 1
 0 604.861328125 l 1
 0 612.1796875 l 1
 0 619.6796875 l 1
 7.5 619.6796875 l 1
 15 619.6796875 l 1
EndSplineSet
EndChar

StartChar: Q
Encoding: 35 81 16
Width: 572
VWidth: 0
Flags: W
HStem: -141.12 175.38<275.319 491.529> 583.17 50.3496<197.108 331.709>
VStem: 0 95.75<171.698 446.922> 433.58 95.7695<177.197 447.415>
LayerCount: 2
Fore
SplineSet
433.580078125 307.249023438 m 0
 433.580078125 461.30078125 368.876953125 583.169921875 262.469726562 583.169921875 c 0
 152.827148438 583.169921875 95.75 443.5 95.75 307.249023438 c 0
 95.75 160.04296875 163.823242188 34.259765625 275.319335938 34.259765625 c 0
 354.6015625 34.259765625 433.580078125 158.084960938 433.580078125 307.249023438 c 0
264.719726562 633.51953125 m 0
 450.123046875 633.51953125 529.349609375 487.014648438 529.349609375 309.904296875 c 0
 529.349609375 212.262695312 500.305664062 30.58984375 329.748046875 -8.4921875 c 1
 368.344726562 -63.701171875 413.724609375 -77.8662109375 497.998046875 -97.833984375 c 2
 505.165039062 -99.5322265625 l 1
 512.331054688 -101.229492188 l 1
 510.763671875 -108.42578125 l 1
 509.196289062 -115.622070312 l 2
 507.987304688 -121.173828125 506.176757812 -129.35546875 506.174804688 -129.360351562 c 2
 504.874023438 -135.240234375 l 1
 503.573242188 -141.120117188 l 1
 497.55078125 -141.120117188 l 1
 491.529296875 -141.120117188 l 2
 379.754882812 -141.120117188 280.255859375 -117.393554688 232.595703125 -15.4111328125 c 1
 55.26171875 -0.3525390625 0 173.541015625 0 309.771484375 c 0
 0 430.27734375 50.3515625 633.51953125 264.719726562 633.51953125 c 0
EndSplineSet
EndChar

StartChar: R
Encoding: 36 82 17
Width: 519
VWidth: 0
Flags: W
HStem: 0 21G<0 94.46 374.137 491.175> 310.792 34.6777<94.4707 164.313> 569.34 50.3301<94.4707 253.905>
VStem: 0 94.46<0 310.792 345.47 569.34>
LayerCount: 2
Fore
SplineSet
154 569.33984375 m 2
 94.470703125 569.33984375 l 1
 94.470703125 345.469726562 l 1
 120.350585938 345.469726562 l 2
 267.198242188 345.469726562 309.5 389.161132812 309.5 457.241210938 c 0
 309.5 525.078125 255.86328125 569.33984375 154 569.33984375 c 2
394.811523438 512.334960938 m 0
 397.239257812 505.98046875 399.25390625 499.733398438 400.873046875 493.595703125 c 0
 429.893554688 383.587890625 331.41796875 323.5 272.412109375 305.329101562 c 1
 475.408203125 7.5 l 1
 484.442382812 3.2021484375 l 1
 491.174804688 0 l 1
 476.978515625 0 l 1
 462.970703125 0 l 1
 384.310546875 0 l 1
 380.33984375 0 l 1
 376.369140625 0 l 1
 374.13671875 3.2841796875 l 1
 371.904296875 6.568359375 l 1
 164.313476562 312.005859375 l 1
 139.401367188 310.984375 111.3203125 310.83984375 94.4599609375 310.791992188 c 1
 94.4599609375 15 l 1
 94.4599609375 7.5 l 1
 94.4599609375 0 l 1
 86.9599609375 0 l 1
 79.4599609375 0 l 1
 15 0 l 1
 7.5 0 l 1
 0 0 l 1
 0 7.5 l 1
 0 14.818359375 l 1
 0 604.8515625 l 1
 0 612.169921875 l 1
 0 619.669921875 l 1
 7.5 619.669921875 l 1
 15 619.669921875 l 1
 148.400390625 619.669921875 l 2
 232.337890625 619.669921875 352.081054688 624.35546875 394.811523438 512.334960938 c 0
EndSplineSet
EndChar

StartChar: S
Encoding: 37 83 18
Width: 491
VWidth: 0
Flags: W
HStem: -16.0703 54.8799<159.617 306.861> 434.096 21G<372.073 380.43> 583.63 49.8896<149.544 311.535>
VStem: 23.2793 83.3008<421.723 543.813> 370.29 78.5596<95.177 213.029>
LayerCount: 2
Fore
SplineSet
106.580078125 488.149414062 m 0
 106.580078125 433.26171875 137.958007812 386.939453125 236.112304688 361.684570312 c 0
 367.780273438 327.750976562 448.849609375 287.868164062 448.849609375 165.71875 c 0
 448.849609375 55.8359375 343.7109375 -16.0703125 234.819335938 -16.0703125 c 0
 133.553710938 -16.0703125 60.0126953125 41.421875 17.640625 114.788085938 c 2
 17.044921875 115.8203125 l 1
 16.4482421875 116.852539062 l 1
 16.201171875 118.018554688 l 1
 15.955078125 119.184570312 l 2
 3.10546875 179.905273438 1.033203125 231.024414062 1.0126953125 231.50390625 c 2
 0.7099609375 238.756835938 l 1
 0.4072265625 246.009765625 l 1
 7.646484375 246.548828125 l 1
 14.884765625 247.087890625 l 1
 14.884765625 247.087890625 22.9453125 247.6875 27.79296875 248.104492188 c 2
 35.134765625 248.737304688 l 1
 42.4755859375 249.369140625 l 1
 43.2373046875 242.040039062 l 1
 44 234.711914062 l 2
 44.666015625 228.3046875 46.4970703125 211.500976562 48.0556640625 203.983398438 c 0
 67.2587890625 113.162109375 162.572265625 38.8095703125 232.919921875 38.8095703125 c 0
 288.248046875 38.8095703125 370.290039062 81.77734375 370.290039062 153.756835938 c 0
 370.290039062 218.341796875 323.134765625 248.33203125 214.635742188 275.137695312 c 0
 72.8544921875 310.251953125 23.279296875 378.659179688 23.279296875 478.115234375 c 0
 23.279296875 565.862304688 114.981445312 633.51953125 229.819335938 633.51953125 c 0
 312.170898438 633.51953125 348.77734375 613.751953125 395.12890625 574.041992188 c 2
 396.484375 572.880859375 l 1
 397.838867188 571.719726562 l 1
 398.526367188 570.073242188 l 1
 399.213867188 568.426757812 l 2
 416.750976562 526.39453125 414.926757812 452.794921875 414.918945312 452.280273438 c 2
 414.848632812 445.73828125 l 1
 414.778320312 439.177734375 l 1
 408.266601562 438.375 l 1
 401.754882812 437.572265625 l 2
 401.74609375 437.571289062 393.397460938 436.541015625 388.169921875 435.923828125 c 2
 380.4296875 435.009765625 l 1
 372.688476562 434.095703125 l 1
 372.073242188 441.865234375 l 1
 371.45703125 449.634765625 l 2
 371.15625 453.428710938 370.129882812 463.036132812 368.826171875 471.333007812 c 0
 353.640625 569.349609375 270.0234375 583.629882812 234.309570312 583.629882812 c 0
 167.697265625 583.629882812 106.580078125 552.452148438 106.580078125 488.149414062 c 0
EndSplineSet
EndChar

StartChar: T
Encoding: 38 84 19
Width: 572
VWidth: 0
Flags: W
HStem: 0 21G<218.899 313.37> 569.89 49.79<-1 218.899 313.37 533.18>
VStem: 218.899 94.4707<0 569.89>
LayerCount: 2
Fore
SplineSet
533.1796875 619.6796875 m 1
 533.1796875 612.1796875 l 1
 533.1796875 604.6796875 l 1
 533.1796875 584.889648438 l 1
 533.1796875 577.389648438 l 1
 533.1796875 569.889648438 l 1
 525.6796875 569.889648438 l 1
 518.1796875 569.889648438 l 1
 313.370117188 569.889648438 l 1
 313.370117188 14.8046875 l 1
 313.370117188 7.5 l 1
 313.370117188 0 l 1
 305.870117188 0 l 1
 298.370117188 0 l 1
 233.899414062 0 l 1
 226.399414062 0 l 1
 218.899414062 0 l 1
 218.899414062 7.5 l 1
 218.899414062 14.8046875 l 1
 218.899414062 569.889648438 l 1
 14 569.889648438 l 1
 6.5 569.889648438 l 1
 -1 569.889648438 l 1
 -1 577.389648438 l 1
 -1 584.889648438 l 1
 -1 604.6796875 l 1
 -1 612.1796875 l 1
 -1 619.6796875 l 1
 6.5 619.6796875 l 1
 14 619.6796875 l 1
 518.1796875 619.6796875 l 1
 525.6796875 619.6796875 l 1
 533.1796875 619.6796875 l 1
EndSplineSet
EndChar

StartChar: U
Encoding: 39 85 20
Width: 488
VWidth: 0
Flags: W
HStem: -16.0703 47.3799<147.735 319.541> 599.68 19.9902G<0.00195312 94.46 379.19 428.99>
VStem: -0.0898438 94.5498<86.4404 619.67> 379.19 49.7998<90.6786 619.68>
LayerCount: 2
Fore
SplineSet
379.190429688 619.6796875 m 1
 386.690429688 619.6796875 l 1
 394.200195312 619.6796875 l 1
 413.990234375 619.6796875 l 1
 421.490234375 619.6796875 l 1
 428.990234375 619.6796875 l 1
 428.990234375 612.1796875 l 1
 428.990234375 604.854492188 l 1
 428.990234375 178.36328125 l 2
 428.990234375 53.1376953125 363.860351562 -16.0703125 218.969726562 -16.0703125 c 0
 94.58203125 -16.0703125 -0.08984375 34.6181640625 -0.08984375 176.229492188 c 2
 0 604.84765625 l 1
 0.001953125 612.171875 l 1
 0.0029296875 619.669921875 l 1
 7.501953125 619.669921875 l 1
 15 619.669921875 l 1
 79.4599609375 619.669921875 l 1
 86.9599609375 619.669921875 l 1
 94.4599609375 619.669921875 l 1
 94.4599609375 612.169921875 l 1
 94.4599609375 604.858398438 l 1
 94.4599609375 175.379882812 l 2
 94.4599609375 62.755859375 159.264648438 31.3095703125 230.0703125 31.3095703125 c 0
 296.690429688 31.3095703125 379.190429688 54.310546875 379.190429688 179.716796875 c 2
 379.190429688 604.868164062 l 1
 379.190429688 612.1796875 l 1
 379.190429688 619.6796875 l 1
EndSplineSet
EndChar

StartChar: V
Encoding: 40 86 21
Width: 520
VWidth: 0
Flags: W
HStem: 599.68 20G<-1.3125 101.411 434.066 488.057>
LayerCount: 2
Fore
SplineSet
435.608398438 619.6796875 m 1
 441.284179688 619.6796875 l 1
 446.959960938 619.6796875 l 1
 468.140625 619.6796875 l 1
 478.06640625 619.6796875 l 1
 488.056640625 619.6796875 l 1
 485.268554688 610.311523438 l 1
 482.557617188 601.204101562 l 1
 302.083984375 -5.189453125 l 1
 300.541992188 -10.6181640625 l 1
 298.994140625 -16.0703125 l 1
 293.327148438 -16.0703125 l 1
 287.66015625 -16.0703125 l 1
 245.23046875 -16.0703125 l 1
 239.930664062 -16.0703125 l 1
 234.630859375 -16.0703125 l 1
 232.861328125 -11.0751953125 l 1
 231.100585938 -6.10546875 l 1
 5.873046875 600.33203125 l 1
 2.3359375 609.857421875 l 1
 -1.3125 619.6796875 l 1
 9.3857421875 619.6796875 l 1
 20 619.6796875 l 1
 89.0302734375 619.6796875 l 1
 94.337890625 619.6796875 l 1
 99.6455078125 619.6796875 l 1
 101.411132812 614.673828125 l 1
 103.176757812 609.668945312 l 1
 286.244140625 90.56640625 l 1
 432.524414062 608.754882812 l 1
 434.06640625 614.216796875 l 1
 435.608398438 619.6796875 l 1
EndSplineSet
EndChar

StartChar: W
Encoding: 41 87 22
Width: 769
VWidth: 0
Flags: W
HStem: 599.68 20G<0.686523 103.492 238.954 345.759 433.616 488.026 675.237 729.125>
LayerCount: 2
Fore
SplineSet
676.779296875 619.6796875 m 1
 682.455078125 619.6796875 l 1
 688.129882812 619.6796875 l 1
 709.209960938 619.6796875 l 1
 719.135742188 619.6796875 l 1
 729.125 619.6796875 l 1
 726.336914062 610.311523438 l 1
 723.626953125 601.204101562 l 1
 543.1640625 -5.189453125 l 1
 541.622070312 -10.6181640625 l 1
 540.075195312 -16.0703125 l 1
 534.407226562 -16.0703125 l 1
 528.740234375 -16.0703125 l 1
 486.400390625 -16.0703125 l 1
 481.059570312 -16.0703125 l 1
 475.719726562 -16.0703125 l 1
 473.97265625 -11.0234375 l 1
 472.225585938 -5.9765625 l 1
 378.767578125 264.026367188 l 1
 304.095703125 -5.05859375 l 1
 302.588867188 -10.486328125 l 1
 301.064453125 -15.98046875 l 1
 295.362304688 -15.98046875 l 1
 289.66015625 -15.98046875 l 1
 247.23046875 -15.98046875 l 1
 241.930664062 -15.98046875 l 1
 236.631835938 -15.98046875 l 1
 234.861328125 -10.9853515625 l 1
 233.1015625 -6.0166015625 l 1
 7.8798828125 600.313476562 l 1
 4.3349609375 609.857421875 l 1
 0.6865234375 619.6796875 l 1
 11.3857421875 619.6796875 l 1
 22 619.6796875 l 1
 91.1103515625 619.6796875 l 1
 96.4189453125 619.6796875 l 1
 101.727539062 619.6796875 l 1
 103.4921875 614.672851562 l 1
 105.256835938 609.666015625 l 1
 288.053710938 91.0908203125 l 1
 349.827148438 315.640625 l 1
 246.298828125 599.541015625 l 1
 242.625976562 609.610351562 l 1
 238.954101562 619.6796875 l 1
 249.672851562 619.6796875 l 1
 260.390625 619.6796875 l 1
 333.110351562 619.6796875 l 1
 338.606445312 619.6796875 l 1
 344.103515625 619.6796875 l 1
 345.758789062 614.438476562 l 1
 347.4140625 609.197265625 l 1
 394.536132812 459.984375 l 1
 432.181640625 608.368164062 l 1
 433.616210938 614.024414062 l 1
 435.05078125 619.6796875 l 1
 440.885742188 619.6796875 l 1
 446.720703125 619.6796875 l 1
 468.580078125 619.6796875 l 1
 478.303710938 619.6796875 l 1
 488.026367188 619.6796875 l 1
 485.557617188 610.275390625 l 1
 483.087890625 600.870117188 l 1
 423.51953125 373.98828125 l 1
 527.100585938 89.74609375 l 1
 673.694335938 608.756835938 l 1
 675.237304688 614.21875 l 1
 676.779296875 619.6796875 l 1
EndSplineSet
EndChar

StartChar: X
Encoding: 42 88 23
Width: 509
VWidth: 0
Flags: W
HStem: 0 21G<14.167 75.291 377.377 489.92> 599.51 20G<-2 101.873 389.694 450.714>
LayerCount: 2
Fore
SplineSet
-2 619.509765625 m 1
 16 619.509765625 l 1
 91.2001953125 619.509765625 l 1
 95.4443359375 619.509765625 l 1
 99.6884765625 619.509765625 l 1
 101.873046875 615.872070312 l 1
 104.05859375 612.233398438 l 1
 248.81640625 371.237304688 l 1
 387.53125 612.1640625 l 1
 389.694335938 615.921875 l 1
 391.858398438 619.6796875 l 1
 396.194335938 619.6796875 l 1
 400.530273438 619.6796875 l 1
 424.360351562 619.6796875 l 1
 437.45703125 619.6796875 l 1
 450.713867188 619.6796875 l 1
 443.884765625 615.528320312 l 1
 437.2578125 611.5 l 1
 277.178710938 338.69140625 l 1
 476.068359375 7.5 l 1
 482.890625 3.8056640625 l 1
 489.919921875 0 l 1
 476.501953125 0 l 1
 463.25 0 l 1
 388.049804688 0 l 1
 383.805664062 0 l 1
 379.561523438 0 l 1
 377.376953125 3.6376953125 l 1
 375.19140625 7.2763671875 l 1
 222.80859375 260.961914062 l 1
 77.4521484375 7.537109375 l 1
 75.291015625 3.7685546875 l 1
 73.12890625 0 l 1
 68.78515625 0 l 1
 64.4404296875 0 l 1
 40.5205078125 0 l 1
 27.423828125 0 l 1
 14.1669921875 0 l 1
 20.99609375 3.8056640625 l 1
 27.623046875 7.5 l 1
 194.771484375 292.436523438 l 1
 -2 619.509765625 l 1
EndSplineSet
EndChar

StartChar: Y
Encoding: 43 89 24
Width: 544
VWidth: 0
Flags: W
HStem: 0 21G<218.5 313.05> 599.68 20G<0.286133 110.88 473.58 533.188>
VStem: 218.5 94.5498<0 247.493>
LayerCount: 2
Fore
SplineSet
475.735351562 619.6796875 m 1
 480.102539062 619.6796875 l 1
 484.469726562 619.6796875 l 1
 507.279296875 619.6796875 l 1
 520.15625 619.6796875 l 1
 533.188476562 619.6796875 l 1
 526.640625 608.680664062 l 1
 520.288085938 598.009765625 l 1
 313.049804688 249.909179688 l 1
 313.049804688 14.8203125 l 1
 313.049804688 7.5 l 1
 313.049804688 0 l 1
 305.549804688 0 l 1
 298.049804688 0 l 1
 233.5 0 l 1
 226 0 l 1
 218.5 0 l 1
 218.5 7.5 l 1
 218.5 14.8203125 l 1
 218.5 247.493164062 l 1
 12.943359375 598.092773438 l 1
 6.7099609375 608.72265625 l 1
 0.2861328125 619.6796875 l 1
 13.2197265625 619.6796875 l 1
 26 619.6796875 l 1
 99.9296875 619.6796875 l 1
 104.331054688 619.6796875 l 1
 108.733398438 619.6796875 l 1
 110.879882812 615.836914062 l 1
 113.025390625 611.993164062 l 1
 290.754882812 293.745117188 l 1
 471.423828125 612.083007812 l 1
 473.580078125 615.881835938 l 1
 475.735351562 619.6796875 l 1
EndSplineSet
EndChar

StartChar: Z
Encoding: 44 90 25
Width: 505
VWidth: 0
Flags: W
HStem: 0 49.7998<114.534 460.34> 569.89 49.79<13 327.533>
LayerCount: 2
Fore
SplineSet
460.33984375 49.7998046875 m 1
 460.33984375 42.2998046875 l 1
 460.33984375 34.7998046875 l 1
 460.33984375 15 l 1
 460.33984375 7.5 l 1
 460.33984375 0 l 1
 452.83984375 0 l 1
 445.33984375 0 l 1
 12.6796875 0 l 1
 5.1796875 0 l 1
 -2.3203125 0 l 1
 -2.3203125 7.5 l 1
 -2.3203125 14.8046875 l 1
 -2.3203125 33.431640625 l 1
 -2.3203125 35.3701171875 l 1
 -2.3203125 37.4033203125 l 1
 -1.2421875 39.14453125 l 1
 -0.20703125 40.8154296875 l 1
 327.533203125 569.889648438 l 1
 28 569.889648438 l 1
 20.5 569.889648438 l 1
 13 569.889648438 l 1
 13 577.389648438 l 1
 13 584.889648438 l 1
 13 604.6796875 l 1
 13 612.1796875 l 1
 13 619.6796875 l 1
 20.5 619.6796875 l 1
 28 619.6796875 l 1
 440.4296875 619.6796875 l 1
 453.53125 619.6796875 l 1
 466.803710938 619.6796875 l 1
 459.956054688 615.525390625 l 1
 453.321289062 611.5 l 1
 114.534179688 49.7998046875 l 1
 445.33984375 49.7998046875 l 1
 452.83984375 49.7998046875 l 1
 460.33984375 49.7998046875 l 1
EndSplineSet
EndChar

StartChar: comma
Encoding: 2 44 26
Width: 196
VWidth: 0
Flags: W
HStem: -55.7598 175.05
VStem: 0 138.1<0.19433 100.252>
LayerCount: 2
Fore
SplineSet
12.818359375 -28.115234375 m 1
 22.5068359375 -24.7294921875 l 1
 29.5625 -22.2626953125 l 2
 35.8154296875 -20.0771484375 45.9638671875 -16.4853515625 47.3203125 -16 c 0
 48.0234375 -15.736328125 48.6025390625 -15.4931640625 48.6025390625 -15.4931640625 c 1
 20.1201171875 -6.560546875 0 19.4716796875 0 50.3603515625 c 0
 0 88.41796875 30.923828125 119.290039062 69.0498046875 119.290039062 c 0
 106.616210938 119.290039062 138.099609375 93.56640625 138.099609375 60.732421875 c 0
 138.099609375 43.8857421875 137.377929688 32.1123046875 130.139648438 14.1875 c 0
 117.8828125 -16.0380859375 83.6923828125 -29.8046875 52.234375 -44.63671875 c 2
 45.64453125 -48.3359375 l 1
 38.935546875 -52.103515625 l 1
 31 -55.759765625 l 1
 12.818359375 -28.115234375 l 1
EndSplineSet
EndChar

StartChar: hyphen
Encoding: 3 45 27
Width: 291
VWidth: 0
Flags: W
HStem: 153.729 94.5703<0 246.27>
VStem: 0 246.27<153.729 248.299>
LayerCount: 2
Fore
SplineSet
0 248.298828125 m 1
 7.5 248.298828125 l 1
 15 248.298828125 l 1
 231.26953125 248.298828125 l 1
 238.76953125 248.298828125 l 1
 246.26953125 248.298828125 l 1
 246.26953125 240.798828125 l 1
 246.26953125 233.298828125 l 1
 246.26953125 168.728515625 l 1
 246.26953125 161.228515625 l 1
 246.26953125 153.728515625 l 1
 238.76953125 153.728515625 l 1
 231.26953125 153.728515625 l 1
 15 153.728515625 l 1
 7.5 153.728515625 l 1
 0 153.728515625 l 1
 0 161.228515625 l 1
 0 168.728515625 l 1
 0 233.298828125 l 1
 0 240.798828125 l 1
 0 248.298828125 l 1
EndSplineSet
EndChar

StartChar: period
Encoding: 4 46 28
Width: 162
VWidth: 0
Flags: W
HStem: -16 138.119<19.0691 119.051>
VStem: 0 138.119<3.06913 103.046>
LayerCount: 2
Fore
SplineSet
69.0595703125 -16 m 0
 30.91796875 -16 0 14.916015625 0 53.0595703125 c 0
 0 91.201171875 30.916015625 122.119140625 69.0595703125 122.119140625 c 0
 107.204101562 122.119140625 138.119140625 91.19140625 138.119140625 53.0595703125 c 0
 138.119140625 14.91796875 107.203125 -16 69.0595703125 -16 c 0
EndSplineSet
EndChar

StartChar: slash
Encoding: 5 47 29
Width: 231
VWidth: 0
Flags: W
VStem: 0 236.097
LayerCount: 2
Fore
SplineSet
0 -4.4560546875 m 5
 2.04296875 2.609375 l 5
 184.096679688 628.036132812 l 5
 186.208984375 635.560546875 l 5
 188.328125 637.967773438 l 5
 195.743164062 635.560546875 l 5
 203.157226562 633.153320312 l 6
 210.634765625 630.725585938 222.415039062 626.796875 222.415039062 626.796875 c 5
 229.19140625 624.58984375 l 5
 236.096679688 622.33984375 l 5
 234.0703125 620.403320312 l 5
 232.111328125 613.666015625 l 5
 49.458984375 -10.5859375 l 5
 47.443359375 -17.7275390625 l 5
 45.421875 -19.6533203125 l 5
 38.2763671875 -17.7275390625 l 5
 31.1318359375 -15.80078125 l 6
 23.732421875 -13.814453125 12.435546875 -10.65625 12.416015625 -10.6513671875 c 6
 5.1806640625 -8.623046875 l 5
 -2.1005859375 -6.58203125 l 5
 0 -4.4560546875 l 5
EndSplineSet
EndChar

StartChar: zero
Encoding: 6 48 30
Width: 510
VWidth: 0
Flags: W
HStem: -16.0801 49.8604<195.693 306.539> 583.66 49.8496<177.607 309.568>
VStem: 0 94.5801<179.197 462.283> 383.07 94.5996<146.181 475.327>
LayerCount: 2
Fore
SplineSet
0 314.041015625 m 0
 0 545.23828125 113.104492188 633.509765625 253.009765625 633.509765625 c 0
 376.045898438 633.509765625 477.669921875 553.765625 477.669921875 318.397460938 c 0
 477.669921875 137.08984375 422.861328125 -16.0703125 255.1796875 -16.080078125 c 0
 88.0205078125 -16.080078125 0 122.44921875 0 314.041015625 c 0
383.0703125 318.341796875 m 0
 383.0703125 462.849609375 347.07421875 583.66015625 246.639648438 583.66015625 c 0
 139.08203125 583.66015625 94.580078125 467.013671875 94.580078125 321.302734375 c 0
 94.580078125 145.604492188 179.51953125 33.7802734375 248.060546875 33.7802734375 c 0
 316.559570312 33.7802734375 383.0703125 105.106445312 383.0703125 318.341796875 c 0
EndSplineSet
EndChar

StartChar: one
Encoding: 7 49 31
Width: 161
VWidth: 0
Flags: W
HStem: 0 21G<1 95.5498> 599.68 20G<1 95.5498>
VStem: 1 94.5498<0 619.68>
LayerCount: 2
Fore
SplineSet
1 0 m 1
 1 7.5 l 1
 1 14.818359375 l 1
 1 604.861328125 l 1
 1 612.1796875 l 1
 1 619.6796875 l 1
 8.5 619.6796875 l 1
 16 619.6796875 l 1
 80.5498046875 619.6796875 l 1
 88.0498046875 619.6796875 l 1
 95.5498046875 619.6796875 l 1
 95.5498046875 612.1796875 l 1
 95.5498046875 604.861328125 l 1
 95.5498046875 14.818359375 l 1
 95.5498046875 7.5 l 1
 95.5498046875 0 l 1
 88.0498046875 0 l 1
 80.5498046875 0 l 1
 16 0 l 1
 8.5 0 l 1
 1 0 l 1
EndSplineSet
EndChar

StartChar: two
Encoding: 8 50 32
Width: 457
VWidth: 0
Flags: W
HStem: 0 90.7754<99.6611 421.711> 584.16 49.3496<126.433 295.597>
VStem: 340.641 98.5898<398.086 543.147>
LayerCount: 2
Fore
SplineSet
7.0986328125 469.775390625 m 5
 7.7431640625 477.0546875 l 5
 8.388671875 484.333984375 l 6
 15.6123046875 565.830078125 104.672851562 633.51953125 222.150390625 633.509765625 c 4
 327.1171875 633.509765625 439.23046875 597.868164062 439.23046875 480.78515625 c 4
 439.23046875 391.252929688 368.934570312 331.390625 331.282226562 298.303710938 c 6
 99.6611328125 90.775390625 l 5
 426.307617188 90.6298828125 l 5
 435.934570312 90.6259765625 l 5
 445.6171875 90.62109375 l 5
 443.19140625 81.4658203125 l 5
 440.833007812 72.5625 l 5
 424.567382812 11.1728515625 l 5
 423.141601562 5.662109375 l 5
 421.7109375 0 l 5
 415.87109375 0 l 5
 410.030273438 0 l 5
 15 0 l 5
 7.5 0 l 5
 0 0 l 5
 0 7.5 l 5
 0 14.8095703125 l 5
 0 60.626953125 l 5
 0 63.712890625 l 5
 0 66.9306640625 l 5
 2.435546875 69.1044921875 l 5
 4.802734375 71.216796875 l 5
 231.689453125 273.64453125 l 6
 262.818359375 302.072265625 301.220703125 333.49609375 316.662109375 358.504882812 c 4
 333.3671875 385.591796875 340.640625 408.56640625 340.640625 476.0546875 c 4
 340.640625 562.208984375 273.813476562 584.16015625 207.700195312 584.16015625 c 4
 141.622070312 584.16015625 83.07421875 554.983398438 77.552734375 477.434570312 c 6
 76.9970703125 469.623046875 l 5
 76.4404296875 461.810546875 l 5
 68.66015625 462.704101562 l 5
 60.87890625 463.59765625 l 5
 23.87109375 467.848632812 l 5
 14.3583984375 468.94140625 l 5
 7.0986328125 469.775390625 l 5
EndSplineSet
EndChar

StartChar: three
Encoding: 9 51 33
Width: 438
VWidth: 0
Flags: W
HStem: -16.0703 49.8398<98.9043 252.431> 309.95 50.0693<153.96 232.742> 583.72 49.79<116.582 260.482>
VStem: 296.97 94.6006<417.99 546.856> 307.75 94.5898<93.7025 257.632>
LayerCount: 2
Fore
SplineSet
-0.2705078125 134.1328125 m 1xe8
 22.896484375 130.961914062 l 1
 77.966796875 123.424804688 l 1
 77.1220703125 109.5390625 l 2
 73.125 43.873046875 130.217773438 33.7900390625 176.149414062 33.76953125 c 0
 279.415039062 33.76953125 307.75 118.017578125 307.75 181.375976562 c 0xe8
 307.75 284.876953125 227.181640625 309.950195312 168.959960938 309.950195312 c 2
 153.959960938 309.950195312 l 1
 153.959960938 360.01953125 l 1
 168.959960938 360.01953125 l 2
 232.66015625 360.01953125 296.969726562 426.9453125 296.969726562 467.41015625 c 0
 296.969726562 565.532226562 241.368164062 583.719726562 186.479492188 583.719726562 c 0
 129.346679688 583.719726562 99.7197265625 555.704101562 93.1689453125 526.795898438 c 2
 89.8212890625 512.01953125 l 1
 16.625 529.376953125 l 1
 22.962890625 545.475585938 l 2
 48.7890625 611.076171875 126.130859375 633.509765625 185.580078125 633.509765625 c 0
 317.458984375 633.509765625 391.5703125 571.22265625 391.5703125 471.97265625 c 0xf0
 391.5703125 411.84375 348.698242188 357.924804688 299.65625 332.922851562 c 1
 353.427734375 309.37890625 402.33984375 258.891601562 402.33984375 185.563476562 c 0
 402.33984375 7.9150390625 234.905273438 -16.0703125 184.580078125 -16.0703125 c 0
 179.852539062 -16.0703125 175.19921875 -15.970703125 170.623046875 -15.775390625 c 0
 65.220703125 -11.27734375 -4.1025390625 46.06640625 -0.9853515625 117.692382812 c 2
 -0.2705078125 134.1328125 l 1xe8
EndSplineSet
EndChar

StartChar: four
Encoding: 10 52 34
Width: 474
VWidth: 0
Flags: W
HStem: 0 21G<279.06 373.609> 170.99 49.8594<70.7227 279.06 373.609 452.02> 599.68 20G<335.089 373.609>
VStem: 279.06 94.5498<0 170.99 220.87 481.89>
LayerCount: 2
Fore
SplineSet
279.059570312 481.889648438 m 1
 70.72265625 220.849609375 l 1
 279.059570312 220.849609375 l 1
 279.059570312 481.889648438 l 1
373.609375 612.1796875 m 1
 373.609375 604.8203125 l 1
 373.609375 220.870117188 l 1
 437.01953125 220.870117188 l 1
 444.51953125 220.870117188 l 1
 452.01953125 220.870117188 l 1
 452.01953125 213.370117188 l 1
 452.01953125 205.870117188 l 1
 452.01953125 185.990234375 l 1
 452.01953125 178.490234375 l 1
 452.01953125 170.990234375 l 1
 444.51953125 170.990234375 l 1
 437.01953125 170.990234375 l 1
 373.609375 170.990234375 l 1
 373.609375 14.6708984375 l 1
 373.609375 7.5 l 1
 373.609375 0 l 1
 366.109375 0 l 1
 358.609375 0 l 1
 294.059570312 0 l 1
 286.559570312 0 l 1
 279.059570312 0 l 1
 279.059570312 7.5 l 1
 279.059570312 14.6708984375 l 1
 279.059570312 170.990234375 l 1
 14 170.990234375 l 1
 6.5 170.990234375 l 1
 -1 170.990234375 l 1
 -1 178.365234375 l 1
 -1 185.616210938 l 1
 -1 204.5859375 l 1
 -1 207.170898438 l 1
 -1 209.788085938 l 1
 0.677734375 211.819335938 l 1
 2.486328125 214.009765625 l 1
 332.856445312 614.063476562 l 1
 335.088867188 616.859375 l 1
 337.340820312 619.6796875 l 1
 340.950195312 619.6796875 l 1
 344.559570312 619.6796875 l 1
 358.609375 619.6796875 l 1
 366.109375 619.6796875 l 1
 373.609375 619.6796875 l 1
 373.609375 612.1796875 l 1
EndSplineSet
EndChar

StartChar: five
Encoding: 11 53 35
Width: 457
VWidth: 0
Flags: W
HStem: -16.0703 49.79<103.952 273.265> 373.22 50.0498<72.9961 266.805> 525.04 94.6396<72.21 366.048>
VStem: 22.3301 49.8799<412.504 525.04> 334.61 99.9795<113.179 305.999>
LayerCount: 2
Fore
SplineSet
79.7822265625 118.926757812 m 5
 80.111328125 112.565429688 l 5
 80.4404296875 106.204101562 l 6
 83.2275390625 52.259765625 122.30859375 33.73046875 183.23046875 33.7197265625 c 4
 301.434570312 33.7197265625 334.610351562 100.75390625 334.610351562 223.311523438 c 4
 334.610351562 365.142578125 213.379882812 373.219726562 160.16015625 373.219726562 c 4
 111.3046875 373.219726562 83.6259765625 366.633789062 44.55078125 347.091796875 c 6
 33.201171875 341.379882812 l 5
 22.330078125 335.909179688 l 5
 22.330078125 348.079101562 l 5
 22.330078125 360.25 l 5
 22.330078125 604.908203125 l 5
 22.330078125 612.1796875 l 5
 22.330078125 619.6796875 l 5
 29.830078125 619.6796875 l 5
 37.330078125 619.6796875 l 5
 370.520507812 619.6796875 l 5
 380.12890625 619.6796875 l 5
 389.73828125 619.6796875 l 5
 387.405273438 610.358398438 l 5
 385.071289062 601.037109375 l 5
 368.890625 536.397460938 l 5
 367.469726562 530.71875 l 5
 366.047851562 525.040039062 l 5
 360.193359375 525.040039062 l 5
 354.33984375 525.040039062 l 5
 72.2099609375 525.040039062 l 5
 72.2099609375 412.50390625 l 5
 105.407226562 421.873046875 134.094726562 423.26953125 170.140625 423.26953125 c 4
 236.290039062 423.26953125 434.58984375 402.676757812 434.58984375 217.826171875 c 4
 434.58984375 42.71875 289.245117188 -16.0703125 183.23046875 -16.0703125 c 4
 83.021484375 -16.0703125 8.11328125 35.732421875 1.6083984375 109.563476562 c 6
 0.8046875 118.690429688 l 5
 0 127.817382812 l 5
 9.1064453125 126.802734375 l 5
 18.205078125 125.788085938 l 5
 67.12109375 120.337890625 l 5
 73.4521484375 119.631835938 l 5
 79.7822265625 118.926757812 l 5
EndSplineSet
EndChar

StartChar: six
Encoding: 12 54 36
Width: 435
VWidth: 0
Flags: W
HStem: -16.0703 50.3203<156.165 279.848> 362.9 49.4795<160.066 279.084>
VStem: 0 102.67<124.86 292.68> 329.46 94.5<101.049 302.468>
LayerCount: 2
Fore
SplineSet
220.819335938 362.900390625 m 4
 142.55078125 362.900390625 102.669921875 278.4375 102.669921875 198.588867188 c 4
 102.669921875 98.3525390625 144.8515625 34.25 225.76953125 34.25 c 4
 295.614257812 34.25 329.459960938 113.791015625 329.459960938 197.153320312 c 4
 329.459960938 274.846679688 301.747070312 362.900390625 220.819335938 362.900390625 c 4
373.646484375 592.684570312 m 6
 269.350585938 562.198242188 148.420898438 514.470703125 105.028320312 369.033203125 c 5
 132.323242188 392.052734375 171.6953125 412.379882812 223.649414062 412.379882812 c 4
 365.697265625 412.379882812 423.94921875 302.375976562 423.959960938 209.061523438 c 4
 423.959960938 40.384765625 306.358398438 -16.0703125 218.58984375 -16.0703125 c 4
 117.646484375 -16.0703125 0 46.2978515625 0 259.52734375 c 4
 0 480.59765625 203.690429688 598.502929688 340.815429688 628.338867188 c 4
 346.942382812 629.727539062 356.477539062 631.870117188 362.748046875 633.1953125 c 6
 369.80078125 634.685546875 l 5
 376.853515625 636.176757812 l 5
 378.622070312 629.188476562 l 5
 380.383789062 622.461914062 l 6
 381.994140625 616.510742188 383.796875 609.916992188 383.796875 609.916992188 c 5
 385.565429688 603.446289062 l 5
 387.421875 596.655273438 l 5
 380.458007812 594.647460938 l 5
 373.646484375 592.684570312 l 6
EndSplineSet
EndChar

StartChar: seven
Encoding: 13 55 37
Width: 396
VWidth: 0
Flags: W
HStem: 525.02 94.6504<20.6719 309.732>
LayerCount: 2
Fore
SplineSet
402.869140625 619.669921875 m 5
 398.477539062 609.49609375 l 5
 394.21484375 599.624023438 l 5
 132.34765625 -6.9775390625 l 5
 129.407226562 -13.94921875 l 5
 126.456054688 -21.115234375 l 5
 119.390625 -17.9306640625 l 5
 112.359375 -14.759765625 l 5
 112.359375 -14.759765625 99.2451171875 -9.158203125 94.4619140625 -7.2060546875 c 6
 87.68359375 -4.4404296875 l 5
 80.7451171875 -1.609375 l 5
 83.6767578125 5.1328125 l 5
 86.48828125 11.5986328125 l 5
 309.732421875 525.01953125 l 5
 18.6298828125 525.01953125 l 5
 9.314453125 525.01953125 l 5
 0 525.01953125 l 5
 1.9873046875 534.120117188 l 5
 3.9755859375 543.219726562 l 5
 18.095703125 607.872070312 l 5
 19.3837890625 613.770507812 l 5
 20.671875 619.669921875 l 5
 26.7109375 619.669921875 l 5
 32.75 619.669921875 l 5
 381.302734375 619.669921875 l 5
 391.56640625 619.669921875 l 5
 402.869140625 619.669921875 l 5
EndSplineSet
EndChar

StartChar: eight
Encoding: 14 56 38
Width: 407
VWidth: 0
Flags: W
HStem: -16.0703 49.8008<130.608 244.966> 583.81 49.71<122.983 235.857>
VStem: -6.62988 94.6299<77.056 219.356 441.317 543.012> 270.48 83.8799<427.213 549.578> 275.48 94.6201<70.148 193.156>
LayerCount: 2
Fore
SplineSet
179.120117188 633.51953125 m 4xe8
 284.234375 633.51953125 354.360351562 570.038085938 354.360351562 497.338867188 c 4xf0
 354.360351562 434.939453125 318.317382812 400.682617188 232.328125 335.918945312 c 5
 325.623046875 265.282226562 370.111328125 221.82421875 370.100585938 144.444335938 c 4
 370.100585938 60.7919921875 295.013671875 -16.0703125 178.680664062 -16.0703125 c 4
 57.4482421875 -16.0703125 -6.6298828125 64.619140625 -6.6298828125 138.368164062 c 4
 -6.6298828125 216.408203125 38.978515625 260.555664062 110.453125 314.997070312 c 5
 13.017578125 391.931640625 -0 425.176757812 -0 479.090820312 c 4
 -0 554.888671875 58.875 633.51953125 179.120117188 633.51953125 c 4xe8
270.48046875 486.41015625 m 4
 270.48046875 539.5078125 233.595703125 583.809570312 179.970703125 583.809570312 c 4
 123.791992188 583.809570312 94.5400390625 536.48828125 94.5400390625 499.41015625 c 4
 94.5400390625 455.814453125 101.865234375 435.487304688 192.369140625 355.55078125 c 5
 256.640625 414.564453125 270.48046875 440.529296875 270.48046875 486.41015625 c 4
150.165039062 296.78515625 m 5
 108.397460938 258.130859375 88 235.208984375 88 150.3203125 c 4
 88 68.9384765625 147.899414062 33.73046875 185.740234375 33.73046875 c 4
 238.455078125 33.73046875 275.48046875 73.85546875 275.48046875 121.139648438 c 4xe8
 275.48046875 181.11328125 252.225585938 207.16015625 150.165039062 296.78515625 c 5
EndSplineSet
EndChar

StartChar: nine
Encoding: 15 57 39
Width: 447
VWidth: 0
Flags: W
HStem: 208.4 49.2695<129.278 247.812> 583.24 50.2793<127.407 250.957>
VStem: 1 77.9902<317.465 519.824> 303.66 102.04<331.592 505.667>
LayerCount: 2
Fore
SplineSet
181.700195312 583.240234375 m 0
 112.554388135 583.240234375 78.990234375 504.523362392 78.990234375 421.866079225 c 0
 78.990234375 344.836757738 106.477373021 257.669921875 186.610351562 257.669921875 c 0
 264.129691822 257.669921875 303.66015625 341.298752251 303.66015625 420.441061558 c 0
 303.66015625 519.784697388 261.850210914 583.240234375 181.700195312 583.240234375 c 0
183.770507812 208.400390625 m 0
 42.8958699939 208.400390625 1 317.536132812 1 410.022460938 c 4
 1 577.404296875 117.780273438 633.51953125 204.80078125 633.51953125 c 4
 304.61328125 633.51953125 405.710269328 578.030785339 405.700195312 359.920977539 c 0
 405.700195312 153.662495629 233.622927605 50.5506992588 141.156322179 16.4905849361 c 0
 105.637727172 3.42720244833 50.0866116407 -15.2073303101 50.0766760366 -15.2106646365 c 2
 42.5830342589 -17.8434341147 l 1
 35.0641171484 -20.4850836709 l 1
 32.8832782854 -12.8198133727 l 1
 30.7113606011 -5.43622433526 l 1
 30.7113606011 -5.43622433526 27.2375253285 5.98921123537 25.3354101213 12.3981492836 c 2
 23.3660476719 19.0336684596 l 1
 21.300869663 25.9920261169 l 1
 28.4909347088 28.0035850946 l 1
 35.5391231904 29.9754513748 l 2
 40.3721093417 31.3275721998 45.9714314782 32.9375973867 48.7815151735 33.7322839153 c 2
 48.7815151735 33.7322839153 158.611129686 63.676073872 226.453154189 125.442600532 c 0
 253.378391524 150.463867201 280.035986821 189.738036303 298.575888837 248.946508537 c 1
 270.572863638 226.403210916 233.455498891 208.400390625 183.770507812 208.400390625 c 0
EndSplineSet
EndChar

StartChar: colon
Encoding: 16 58 40
Width: 185
VWidth: 0
Flags: W
HStem: -16.0596 138.119<19.0691 119.051> 297.82 138.12<19.0684 119.05>
VStem: 0 138.119<3.00956 102.987 316.893 416.871>
LayerCount: 2
Fore
SplineSet
69.0595703125 435.940429688 m 4
 107.202148438 435.940429688 138.119140625 405.0234375 138.119140625 366.879882812 c 4
 138.119140625 328.73828125 107.203125 297.8203125 69.0595703125 297.8203125 c 4
 30.9150390625 297.8203125 0 328.748046875 0 366.879882812 c 4
 0 405.021484375 30.916015625 435.940429688 69.0595703125 435.940429688 c 4
69.0595703125 -16.0595703125 m 4
 30.91796875 -16.0595703125 0 14.8564453125 0 53 c 4
 0 91.1416015625 30.916015625 122.059570312 69.0595703125 122.059570312 c 4
 107.204101562 122.059570312 138.119140625 91.1318359375 138.119140625 53 c 4
 138.119140625 14.8583984375 107.203125 -16.0595703125 69.0595703125 -16.0595703125 c 4
EndSplineSet
EndChar

StartChar: semicolon
Encoding: 17 59 41
Width: 185
VWidth: 0
Flags: W
HStem: 305.151 138.08<19.0666 119.013>
VStem: 0 138.1<0.442169 95.7433 324.218 424.164>
LayerCount: 2
Fore
SplineSet
13.91015625 -31.443359375 m 1
 22.0927734375 -28.1591796875 l 1
 29.1484375 -25.3271484375 l 2
 35.39453125 -22.8212890625 45.5556640625 -18.693359375 46.8955078125 -18.142578125 c 0
 47.7275390625 -17.7841796875 50.6923828125 -16.3046875 51.2685546875 -16 c 1
 21.6357421875 -8.390625 0 17.384765625 0 48.05859375 c 0
 0 84.654296875 30.923828125 114.340820312 69.0498046875 114.340820312 c 0
 106.90234375 114.340820312 138.099609375 86.0166015625 138.099609375 50.533203125 c 0
 138.099609375 32.0927734375 137.390625 19.33203125 130.176757812 -0.234375 c 0
 117.99609375 -33.130859375 83.8994140625 -48.2314453125 52.294921875 -64.5517578125 c 2
 45.64453125 -68.28515625 l 1
 38.935546875 -72.052734375 l 1
 13.91015625 -31.443359375 l 1
69.0400390625 443.231445312 m 0
 107.161132812 443.231445312 138.080078125 412.326171875 138.080078125 374.19140625 c 0
 138.080078125 336.069335938 107.174804688 305.151367188 69.0400390625 305.151367188 c 0
 30.9169921875 305.151367188 0 336.065429688 0 374.19140625 c 0
 0 412.311523438 30.904296875 443.231445312 69.0400390625 443.231445312 c 0
EndSplineSet
EndChar

StartChar: question
Encoding: 18 63 42
Width: 423
VWidth: 0
Flags: W
HStem: -16.0703 100.09<133.654 215.278> 574.77 58.7402<114.264 255.448>
VStem: 124.42 100.09<-6.83547 74.7868> 149.53 49.7891<114.65 207.859>
LayerCount: 2
Fore
SplineSet
9.318359375 493.09375 m 0xd0
 48.3095703125 594.4921875 115.477539062 633.509765625 183.119140625 633.509765625 c 0
 301.810546875 633.509765625 377.450195312 565.422851562 377.450195312 481.51953125 c 0
 377.450195312 393.229492188 334.833007812 355.633789062 278.747070312 291.54296875 c 0
 225.690429688 230.797851562 199.319335938 177.90625 199.319335938 129.650390625 c 2
 199.319335938 122.150390625 l 1
 199.319335938 114.650390625 l 1
 191.819335938 114.650390625 l 1
 184.319335938 114.650390625 l 1
 164.530273438 114.650390625 l 1
 157.030273438 114.650390625 l 1
 149.530273438 114.650390625 l 1
 149.530273438 122.150390625 l 1
 149.530273438 129.650390625 l 2
 149.530273438 185.483398438 171.180664062 244.780273438 195.983398438 282.396484375 c 0
 249.102539062 362.8203125 263.786132812 372.48046875 276.051757812 420.842773438 c 0
 286.833984375 463.297851562 287.498046875 499.810546875 275.607421875 527.659179688 c 0
 263.159179688 556.638671875 232.953125 574.76953125 183.290039062 574.76953125 c 0
 134.350585938 574.76953125 81.8203125 550.4296875 42.8701171875 455.838867188 c 2
 40.1435546875 449.217773438 l 1
 37.41796875 442.59765625 l 1
 30.677734375 445.013671875 l 1
 23.9384765625 447.4296875 l 1
 23.9384765625 447.4296875 16.03125 450.264648438 10.48046875 452.231445312 c 2
 3.4716796875 454.71484375 l 1
 -3.537109375 457.198242188 l 1
 -1.1142578125 464.227539062 l 1
 1.30859375 471.2578125 l 2
 3.1865234375 476.705078125 6.423828125 485.641601562 9.318359375 493.09375 c 0xd0
174.469726562 -16.0703125 m 0
 146.827148438 -16.0703125 124.419921875 6.3349609375 124.419921875 33.98046875 c 0
 124.419921875 61.615234375 146.826171875 84.01953125 174.469726562 84.01953125 c 0
 202.108398438 84.01953125 224.5234375 61.61328125 224.509765625 33.98046875 c 0xe0
 224.509765625 6.3408203125 202.108398438 -16.0703125 174.469726562 -16.0703125 c 0
EndSplineSet
EndChar

StartChar: a
Encoding: 45 97 43
Width: 419
VWidth: 0
Flags: W
HStem: 0 21G<252.189 346.755> 196.356 47.1201<136.896 252.02>
VStem: 252.02 94.6299<0 34.6484 81.3004 196.356 243.477 364.41>
LayerCount: 2
Fore
SplineSet
18.8193359375 349.834960938 m 1
 22.353515625 357.03515625 l 1
 25.7021484375 363.856445312 l 2
 59.0810546875 431.8515625 171.352539062 455.524414062 271.329101562 413.8203125 c 0
 346.12109375 382.635742188 346.745117188 330.31640625 346.649414062 327.249023438 c 2
 346.649414062 105.374023438 l 1
 346.740234375 14.236328125 l 1
 346.747070312 7.244140625 l 1
 346.754882812 0 l 1
 339.247070312 0 l 1
 331.740234375 0 l 1
 267.189453125 0 l 1
 259.689453125 0 l 1
 252.189453125 0 l 1
 252.189453125 7.5 l 1
 252.189453125 15 l 2
 252.189453125 21.2822265625 252.092773438 29.74609375 252.092773438 34.6484375 c 1
 209.796875 -7.31640625 171.71484375 -15.830078125 127.469726562 -15.830078125 c 0
 103.555664062 -15.830078125 82.0390625 -11.197265625 63.876953125 -2.8193359375 c 0
 4.9697265625 22.5 -17.0380859375 83.8310546875 11.6865234375 141.143554688 c 0
 48.1337890625 213.76171875 147.294921875 241.017578125 252.01953125 243.4765625 c 1
 252.01953125 304.643554688 l 2
 252.01953125 332.99609375 245.6328125 358.490234375 218.470703125 372.689453125 c 0
 216.420898438 373.760742188 213.567382812 375.078125 210.182617188 376.41015625 c 0
 179.677734375 388.416015625 121.065429688 398.712890625 93.7978515625 338.065429688 c 2
 91.0087890625 331.86328125 l 1
 88.2041015625 325.625976562 l 1
 81.5791015625 327.9375 l 1
 74.8203125 330.294921875 l 1
 34.1201171875 344.49609375 l 1
 26.5810546875 347.126953125 l 1
 18.8193359375 349.834960938 l 1
136.881835938 175.120117188 m 0
 92.0693359375 156.4765625 87.7978515625 98.685546875 96.02734375 62.078125 c 0
 102.504882812 33.115234375 114 21.6962890625 146.594726562 25.404296875 c 0
 250.360351562 37.208984375 253.51171875 148.724609375 252.461914062 196.356445312 c 1
 224.759765625 196.443359375 184.755859375 195.037109375 136.881835938 175.120117188 c 0
EndSplineSet
EndChar

StartChar: b
Encoding: 46 98 44
Width: 375
VWidth: 0
Flags: W
HStem: -16.0703 65.1006<123.41 208.746> 0 21G<-1 93.4707> 367.05 66.71<125.999 215.379> 599.68 20G<-1 93.4707>
VStem: -1 94.4707<0 28.5791 78.5155 341.516 388.653 619.68> 247.98 94.4102<97.5346 326.054>
LayerCount: 2
Fore
SplineSet
170.73046875 49.0302734375 m 0xbc
 214.076171875 49.0302734375 247.98046875 114.909179688 247.98046875 202.4921875 c 0
 247.98046875 309.8828125 220.333984375 367.049804688 174.090820312 367.049804688 c 0
 147.53125 367.049804688 116.604492188 349.524414062 93.48046875 318.856445312 c 1
 93.48046875 107.346679688 l 1
 114.943359375 72.8056640625 142.32421875 49.0302734375 170.73046875 49.0302734375 c 0xbc
93.470703125 604.6796875 m 1
 93.470703125 388.653320312 l 1
 124.077148438 415.442382812 159.78125 434.05078125 200.984375 433.759765625 c 0
 278.6953125 433.178710938 342.400390625 360.624023438 342.390625 202.397460938 c 0
 342.390625 100.701171875 316.989257812 -16.0703125 195.270507812 -16.0703125 c 0xbc
 149.481445312 -16.0703125 115.713867188 5.4345703125 93.470703125 28.5791015625 c 1
 93.470703125 15 l 1
 93.470703125 7.5 l 1
 93.470703125 0 l 1
 85.970703125 0 l 1
 78.470703125 0 l 1
 14 0 l 1
 6.5 0 l 1
 -1 0 l 1x7c
 -1 7.5 l 1
 -1 14.81640625 l 1
 -1 604.6796875 l 1
 -1 612.1796875 l 1
 -1 619.6796875 l 1
 6.5 619.6796875 l 1
 14 619.6796875 l 1
 78.470703125 619.6796875 l 1
 85.970703125 619.6796875 l 1
 93.470703125 619.6796875 l 1
 93.470703125 612.1796875 l 1
 93.470703125 604.6796875 l 1
EndSplineSet
EndChar

StartChar: c
Encoding: 47 99 45
Width: 452
VWidth: 0
Flags: W
HStem: -16.0703 49.2803<164.799 305.24> 387.08 48.8604<165.051 302.485>
VStem: 1 97.6309<118.099 310.099>
LayerCount: 2
Fore
SplineSet
410.588867188 152.830078125 m 1
 409.740234375 144.564453125 l 1
 408.845703125 135.854492188 l 2
 399.908203125 53.01171875 333.796875 -16.0703125 228.510742188 -16.0703125 c 0
 100.893554688 -16.0703125 1 86.2041015625 1 217.471679688 c 0
 1 409.2265625 170.338867188 435.940429688 233.440429688 435.940429688 c 0
 286.483398438 435.940429688 361.94921875 421.520507812 398.555664062 358.405273438 c 2
 402.333984375 351.890625 l 1
 406.11328125 345.375976562 l 1
 399.58203125 341.624023438 l 1
 393.051757812 337.873046875 l 1
 358.112304688 317.802734375 l 1
 351.8515625 314.206054688 l 1
 345.590820312 310.610351562 l 1
 341.758789062 316.729492188 l 1
 337.927734375 322.848632812 l 2
 307.8828125 370.83203125 280.642578125 387.080078125 235.340820312 387.080078125 c 0
 132.756835938 387.080078125 98.630859375 285.595703125 98.630859375 217.369140625 c 0
 98.630859375 127.282226562 138.557617188 33.2099609375 227.990234375 33.2099609375 c 0
 291.327148438 33.2099609375 318.465820312 59.533203125 336.079101562 88.0556640625 c 0
 342.084960938 97.666015625 352.907226562 122.950195312 357.431640625 141.40234375 c 2
 358.833007812 147.116210938 l 1
 360.233398438 152.830078125 l 1
 366.1171875 152.830078125 l 1
 372 152.830078125 l 1
 394.893554688 152.830078125 l 1
 402.279296875 152.830078125 l 1
 410.588867188 152.830078125 l 1
EndSplineSet
EndChar

StartChar: d
Encoding: 48 100 46
Width: 380
VWidth: 0
Flags: W
HStem: -16.0703 65.1104<134.194 219.109> 0 21G<249.51 343.98> 367.06 66.6992<127.596 217.212> 599.68 20G<249.52 343.98>
VStem: 0.5 94.5<96.5495 326.836> 249.52 94.4609<0 28.251 79.5021 341.3 388.596 619.68>
LayerCount: 2
Fore
SplineSet
95 202.501953125 m 0xbc
 95 114.91796875 128.905273438 49.0400390625 172.25 49.0400390625 c 0
 201.06640625 49.0400390625 229.392578125 75.0078125 249.509765625 107.373046875 c 1
 249.509765625 318.236328125 l 1
 223.973632812 352.115234375 195.668945312 367.059570312 168.889648438 367.059570312 c 0
 122.642578125 367.059570312 95 309.896484375 95 202.501953125 c 0xbc
249.51953125 619.6796875 m 1
 257.01953125 619.6796875 l 1
 264.51953125 619.6796875 l 1
 328.98046875 619.6796875 l 1
 336.48046875 619.6796875 l 1
 343.98046875 619.6796875 l 1
 343.98046875 612.1796875 l 1
 343.98046875 604.6796875 l 1
 343.98046875 14.81640625 l 1
 343.98046875 7.5 l 1
 343.98046875 0 l 1
 336.48046875 0 l 1
 328.98046875 0 l 1
 264.509765625 0 l 1
 257.009765625 0 l 1
 249.509765625 0 l 1x7c
 249.509765625 7.5 l 1
 249.509765625 15 l 2
 249.509765625 19.1787109375 249.489257812 25.3544921875 249.489257812 28.2509765625 c 1
 226.739257812 4.3349609375 192.827148438 -16.0703125 147.620117188 -16.0703125 c 0
 25.9873046875 -16.0703125 0.5 100.780273438 0.5 202.397460938 c 0
 0.5 360.635742188 64.3134765625 433.178710938 141.985351562 433.758789062 c 0
 183.577148438 434.131835938 221.150390625 413.407226562 249.51953125 388.595703125 c 1
 249.51953125 604.6796875 l 1
 249.51953125 612.1796875 l 1
 249.51953125 619.6796875 l 1
EndSplineSet
EndChar

StartChar: e
Encoding: 49 101 47
Width: 463
VWidth: 0
Flags: W
HStem: -16.0703 48.9443<145.618 262.14> 229.928 50.9023<91.3975 284.921> 403 32.9502<140.7 240.617>
LayerCount: 2
Fore
SplineSet
91.3974609375 280.830078125 m 1
 284.920898438 280.830078125 l 1
 279.271484375 350.247070312 255.31640625 403 190 403 c 0
 126.923828125 403 98.193359375 343.169921875 91.3974609375 280.830078125 c 1
329.01171875 179.875 m 1
 335.15625 179.875 l 1
 341.33984375 179.875 l 1
 365.809570312 179.875 l 1
 374.09765625 179.875 l 1
 382.413085938 179.875 l 1
 381.557617188 171.603515625 l 1
 380.732421875 163.62109375 l 2
 380.157226562 158.059570312 379.328125 152.8515625 378.411132812 147.759765625 c 0
 361.50390625 57.443359375 300.784179688 -16.0703125 202.690429688 -16.0703125 c 0
 144.318359375 -16.0703125 89.8916015625 -5.701171875 43.189453125 58.0908203125 c 0
 -11.890625 133.4296875 -9.6201171875 251.943359375 18 313.141601562 c 0
 60.7333984375 407.786132812 136.034179688 435.950195312 190.669921875 435.950195312 c 0
 264.395507812 435.950195312 380.209960938 405.784179688 380.209960938 244.16796875 c 2
 380.209960938 237.1640625 l 1
 380.209960938 229.927734375 l 1
 372.709960938 229.927734375 l 1
 365.209960938 229.927734375 l 1
 89.8876953125 229.927734375 l 1
 90.0263671875 133.879882812 118.5234375 32.8740234375 203.549804688 32.8740234375 c 0
 261.192382812 32.8740234375 307.609375 89.78515625 323.569335938 153.389648438 c 0
 323.701171875 153.92578125 325.47265625 162.241210938 326.624023438 167.975585938 c 2
 327.802734375 173.850585938 l 1
 329.01171875 179.875 l 1
EndSplineSet
EndChar

StartChar: f
Encoding: 50 102 48
Width: 287
VWidth: 0
Flags: W
HStem: 0 21G<65.9717 160.38> 383.54 49.8701<-3 65.8799 160.38 243.189> 583.4 50.1191<169.681 247.752>
VStem: 65.9697 94.4102<0 383.54 433.41 578.956>
LayerCount: 2
Fore
SplineSet
276.577148438 530.03515625 m 1
 272.424804688 534.908203125 l 1
 268.272460938 539.780273438 l 2
 236.241210938 577.368164062 223.375 583.400390625 197.409179688 583.400390625 c 0
 167.750976562 583.400390625 160.379882812 553.299804688 160.379882812 494.169921875 c 2
 160.379882812 433.41015625 l 1
 228.189453125 433.41015625 l 1
 235.689453125 433.41015625 l 1
 243.189453125 433.41015625 l 1
 243.189453125 425.91015625 l 1
 243.189453125 418.41015625 l 1
 243.189453125 413.5 l 1
 243.189453125 398.51953125 l 1
 243.189453125 383.540039062 l 1
 235.689453125 383.540039062 l 1
 228.189453125 383.540039062 l 1
 160.379882812 383.540039062 l 1
 160.379882812 14.7119140625 l 1
 160.379882812 7.5 l 1
 160.379882812 0 l 1
 152.879882812 0 l 1
 145.379882812 0 l 1
 80.9697265625 0 l 1
 73.4716796875 0 l 1
 65.97265625 0 l 1
 65.9716796875 7.498046875 l 1
 65.9697265625 14.708984375 l 1
 65.8828125 383.540039062 l 1
 12 383.540039062 l 1
 4.5 383.540039062 l 1
 -3 383.540039062 l 1
 -3 398.51953125 l 1
 -3 413.5 l 1
 -3 418.41015625 l 1
 -3 425.91015625 l 1
 -3 433.41015625 l 1
 4.5 433.41015625 l 1
 12 433.41015625 l 1
 65.8798828125 433.41015625 l 1
 65.8798828125 494.169921875 l 2
 65.8798828125 580.59375 106.005859375 633.51953125 194.739257812 633.51953125 c 0
 265.998046875 633.51953125 308.717773438 606.225585938 326.256835938 578.108398438 c 2
 330.263671875 571.68359375 l 1
 334.271484375 565.258789062 l 1
 327.80859375 561.313476562 l 1
 321.345703125 557.3671875 l 1
 287.505859375 536.70703125 l 1
 282.041992188 533.37109375 l 1
 276.577148438 530.03515625 l 1
EndSplineSet
EndChar

StartChar: g
Encoding: 51 103 49
Width: 441
VWidth: 0
Flags: W
HStem: -200 92.5596<85.0099 302.306> 17.8877 79.5605<77.5511 258.979 259.06 351.278> 121.81 49.1309<143.188 245.876> 387 48.9502<141.17 234.656>
VStem: 1 48.8701<-85.8018 -15.7232> 24.9502 91.8506<198.401 360.359> 267.74 91.7803<192.176 351.962> 365.7 49.46<-70.9743 1.3067>
LayerCount: 2
Fore
SplineSet
24.9501953125 272.322265625 m 0xf7
 24.9501953125 377.6640625 99.91796875 435.950195312 183.680664062 435.950195312 c 0
 210.09765625 435.950195312 247.013671875 427.443359375 276.743164062 412.447265625 c 1
 308.40234375 447.95703125 340.559570312 467.500976562 378.170898438 464.934570312 c 2
 385.370117188 464.443359375 l 1
 392.568359375 463.953125 l 1
 392.356445312 456.740234375 l 1
 392.143554688 449.528320312 l 1
 390.923828125 409.029296875 l 1
 390.720703125 402.439453125 l 1
 390.510742188 395.672851562 l 1
 383.595703125 395.337890625 l 1
 376.684570312 395.001953125 l 2
 354.370117188 393.918945312 334.712890625 389.844726562 320.03125 382.400390625 c 1
 336.948242188 364.864257812 359.520507812 332.272460938 359.520507812 281.391601562 c 0
 359.520507812 156.135742188 278.905273438 121.809570312 195.419921875 121.809570312 c 0
 158.068359375 121.809570312 120.838867188 128.8671875 97.0849609375 139.403320312 c 1
 79.841796875 120.72265625 74.0166015625 108.560546875 73.998046875 104.7265625 c 2
 73.998046875 104.7265625 72.8427734375 97.4482421875 114.120117188 97.4482421875 c 2
 252.3203125 97.4482421875 l 2
 345.809570312 97.4482421875 415.16015625 56.166015625 415.16015625 -24.9501953125 c 0
 415.16015625 -141.198242188 294.920898438 -200 202.850585938 -200 c 0
 89.1357421875 -200 1 -148.938476562 1 -71.8603515625 c 0xfb
 1 -42.7666015625 16.5625 -16.787109375 45.6630859375 7.5 c 1
 34.99609375 11.6572265625 29.263671875 15.1220703125 22.86328125 20.833984375 c 0
 -21.4912109375 60.4140625 25.15625 125.41015625 57.19921875 160.580078125 c 1
 44.6728515625 178.771484375 24.9501953125 215.888671875 24.9501953125 272.322265625 c 0xf7
194.690429688 170.940429688 m 0
 256.836914062 170.940429688 267.740234375 223.869140625 267.740234375 275.793945312 c 0
 267.740234375 340.821289062 229.106445312 387 186.970703125 387 c 0
 144.357421875 387 116.80078125 349.060546875 116.80078125 287.1875 c 0xf7
 116.80078125 200.053710938 151.456054688 170.940429688 194.690429688 170.940429688 c 0
98.931640625 17.8876953125 m 1
 63.6083984375 -13.4287109375 49.8701171875 -42.830078125 49.8701171875 -53.2998046875 c 0xfb
 49.8701171875 -82.9892578125 85.822265625 -107.440429688 204.740234375 -107.440429688 c 0
 290.6640625 -107.440429688 365.693359375 -77.3447265625 365.700195312 -32.599609375 c 0
 365.700195312 4.7197265625 323.165039062 17.41015625 259.059570312 17.41015625 c 2
 259.059570312 17.41015625 148.053710938 17.8515625 98.931640625 17.8876953125 c 1
EndSplineSet
EndChar

StartChar: h
Encoding: 52 104 50
Width: 453
VWidth: 0
Flags: W
HStem: 0 21G<3 97.46 304.142 398.693> 381.66 52.1201<141.811 279.685> 599.68 20G<3 97.46>
VStem: 3 94.46<0 340.439 397.015 619.68> 304.14 94.5498<0 358.14>
LayerCount: 2
Fore
SplineSet
398.693359375 0 m 1
 391.19140625 0 l 1
 383.689453125 0 l 1
 319.139648438 0 l 1
 311.641601562 0 l 1
 304.14453125 0 l 1
 304.141601562 7.498046875 l 1
 304.139648438 14.7060546875 l 1
 304.049804688 282.990234375 l 2
 304.049804688 343.516601562 285.416015625 381.66015625 215.4296875 381.66015625 c 0
 153.05859375 381.66015625 97.4599609375 338.247070312 97.4599609375 290.961914062 c 2
 97.4599609375 14.7109375 l 1
 97.4599609375 7.5 l 1
 97.4599609375 0 l 1
 89.9599609375 0 l 1
 82.4599609375 0 l 1
 18 0 l 1
 10.5 0 l 1
 3 0 l 1
 3 7.5 l 1
 3 14.81640625 l 1
 3 604.6796875 l 1
 3 612.1796875 l 1
 3 619.6796875 l 1
 10.5 619.6796875 l 1
 18 619.6796875 l 1
 82.4599609375 619.6796875 l 1
 89.9599609375 619.6796875 l 1
 97.4599609375 619.6796875 l 1
 97.4599609375 612.1796875 l 1
 97.4599609375 604.6796875 l 1
 97.4599609375 397.014648438 l 1
 140.337890625 428.471679688 195.33984375 433.780273438 219.8203125 433.780273438 c 0
 293.48046875 433.780273438 398.609375 397.700195312 398.609375 292.4765625 c 2
 398.689453125 14.259765625 l 1
 398.69140625 7.2509765625 l 1
 398.693359375 0 l 1
EndSplineSet
EndChar

StartChar: i
Encoding: 53 105 51
Width: 169
VWidth: 0
Flags: W
HStem: 0 21G<-1 95.3809> 413.56 20G<-1 95.3809> 521.36 112.159<3.03247 91.2683>
VStem: -8.92969 112.16<533.322 621.558> -1 96.3809<0 433.56>
LayerCount: 2
Fore
SplineSet
-1 0 m 1xe8
 -1 7.5 l 1
 -1 14.736328125 l 1
 -1 418.559570312 l 1
 -1 426.059570312 l 1
 -1 433.559570312 l 1
 6.5 433.559570312 l 1
 14 433.559570312 l 1
 80.380859375 433.559570312 l 1
 87.880859375 433.559570312 l 1
 95.380859375 433.559570312 l 1
 95.380859375 426.059570312 l 1
 95.380859375 418.559570312 l 1
 95.380859375 14.736328125 l 1
 95.380859375 7.5 l 1
 95.380859375 0 l 1
 87.880859375 0 l 1
 80.380859375 0 l 1
 14 0 l 1
 6.5 0 l 1
 -1 0 l 1xe8
103.23046875 577.440429688 m 0xf0
 103.23046875 546.469726562 78.1240234375 521.360351562 47.150390625 521.360351562 c 0
 16.181640625 521.360351562 -8.9296875 546.465820312 -8.9296875 577.440429688 c 0
 -8.9296875 608.41015625 16.177734375 633.51953125 47.150390625 633.51953125 c 0
 78.119140625 633.51953125 103.23046875 608.4140625 103.23046875 577.440429688 c 0xf0
EndSplineSet
EndChar

StartChar: j
Encoding: 54 106 52
Width: 285
VWidth: 0
Flags: W
HStem: -200 50.4502<18.5871 93.8141> 523.55 109.97<108.2 194.716>
VStem: 96.4902 109.96<535.295 621.777> 104 94.5303<-141.986 438.88>
LayerCount: 2
Fore
SplineSet
151.470703125 633.51953125 m 0xe0
 181.809570312 633.51953125 206.450195312 608.881835938 206.450195312 578.540039062 c 0
 206.450195312 548.205078125 181.817382812 523.549804688 151.470703125 523.549804688 c 0
 121.05078125 523.549804688 96.490234375 548.223632812 96.490234375 578.540039062 c 0
 96.490234375 608.853515625 121.041015625 633.51953125 151.470703125 633.51953125 c 0xe0
198.530273438 423.879882812 m 1xd0
 198.530273438 -64.0498046875 l 2
 198.530273438 -149.666015625 162.924804688 -200 62.9306640625 -200 c 0
 -6.326171875 -200 -66.64453125 -167.520507812 -72.5771484375 -114.4765625 c 2
 -73.3125 -107.900390625 l 1
 -74.0478515625 -101.32421875 l 1
 -67.6142578125 -99.775390625 l 1
 -61.1806640625 -98.2265625 l 1
 -16.8203125 -87.546875 l 1
 -9.861328125 -85.87109375 l 1
 -2.9013671875 -84.1953125 l 1
 -0.9033203125 -91.0693359375 l 1
 1.0947265625 -97.943359375 l 2
 9.5234375 -126.939453125 35.009765625 -149.549804688 63.3603515625 -149.549804688 c 0
 94.75390625 -149.549804688 103.830078125 -115.03515625 103.830078125 -64.044921875 c 2
 104 423.884765625 l 1
 104.002929688 431.3828125 l 1
 104.004882812 438.879882812 l 1
 111.502929688 438.879882812 l 1
 119 438.879882812 l 1
 183.530273438 438.879882812 l 1
 191.030273438 438.879882812 l 1
 198.530273438 438.879882812 l 1
 198.530273438 431.379882812 l 1
 198.530273438 423.879882812 l 1xd0
EndSplineSet
EndChar

StartChar: k
Encoding: 55 107 53
Width: 396
VWidth: 0
Flags: W
HStem: 0 21G<1.09082 95.5498 267.867 395.377> 401.04 20G<276.877 347.41> 599.68 20G<0.998047 95.5498>
VStem: 1.08984 94.46<0 201.449 249.444 619.68>
LayerCount: 2
Fore
SplineSet
333.395507812 408.48828125 m 1
 319.956054688 396.452148438 l 1
 162.657226562 255.578125 l 1
 373.939453125 23.54296875 l 1
 384.427734375 12.0234375 l 1
 395.376953125 0 l 1
 378.795898438 0 l 1
 362.58984375 0 l 1
 276.959960938 0 l 1
 273.53515625 0 l 1
 270.109375 0 l 1
 267.8671875 2.5888671875 l 1
 265.624023438 5.1767578125 l 1
 95.5498046875 201.44921875 l 1
 95.5498046875 15 l 1
 95.5498046875 7.5 l 1
 95.5498046875 0 l 1
 88.0498046875 0 l 1
 80.5498046875 0 l 1
 16.08984375 0 l 1
 8.5908203125 0 l 1
 1.091796875 0 l 1
 1.0908203125 7.4990234375 l 1
 1.08984375 14.814453125 l 1
 1 604.677734375 l 1
 0.9990234375 612.178710938 l 1
 0.998046875 619.6796875 l 1
 8.4990234375 619.6796875 l 1
 16 619.6796875 l 1
 80.5498046875 619.6796875 l 1
 88.0498046875 619.6796875 l 1
 95.5498046875 619.6796875 l 1
 95.5498046875 612.1796875 l 1
 95.5498046875 604.6796875 l 1
 95.5498046875 249.444335938 l 1
 274.71484375 416.99609375 l 1
 276.876953125 419.017578125 l 1
 279.0390625 421.040039062 l 1
 281.999023438 421.040039062 l 1
 284.959960938 421.040039062 l 1
 309.66015625 421.040039062 l 1
 328.294921875 421.040039062 l 1
 347.41015625 421.040039062 l 1
 333.395507812 408.48828125 l 1
EndSplineSet
EndChar

StartChar: l
Encoding: 56 108 54
Width: 166
VWidth: 0
Flags: W
HStem: 0 21G<-1 93.4609> 599.68 20G<-1 93.4609>
VStem: -1 94.4609<0 619.68>
LayerCount: 2
Fore
SplineSet
-1 0 m 1
 -1 7.5 l 1
 -1 14.81640625 l 1
 -1 604.6796875 l 1
 -1 612.1796875 l 1
 -1 619.6796875 l 1
 6.5 619.6796875 l 1
 14 619.6796875 l 1
 78.4609375 619.6796875 l 1
 85.9609375 619.6796875 l 1
 93.4609375 619.6796875 l 1
 93.4609375 612.1796875 l 1
 93.4609375 604.6796875 l 1
 93.4609375 14.81640625 l 1
 93.4609375 7.5 l 1
 93.4609375 0 l 1
 85.9609375 0 l 1
 78.4609375 0 l 1
 14 0 l 1
 6.5 0 l 1
 -1 0 l 1
EndSplineSet
EndChar

StartChar: m
Encoding: 57 109 55
Width: 671
VWidth: 0
Flags: W
HStem: 0 21G<0 94.7891 278.529 373.399 525.741 620.529> 381.38 54.5703<130.323 251.671 403.384 506.455> 401.04 20G<0 94.7891>
VStem: 0 94.7891<0 347.336 392.963 421.04> 278.529 94.8701<0 351.293> 525.739 94.79<0 360.978>
LayerCount: 2
Fore
SplineSet
470.6796875 435.950195312 m 0xdc
 518.583007812 435.950195312 579.461914062 404.987304688 607.212890625 345.462890625 c 0
 614.897460938 329.096679688 620.529296875 299.939453125 620.529296875 278.784179688 c 2
 620.529296875 14.74609375 l 1
 620.529296875 7.5 l 1
 620.529296875 0 l 1
 613.029296875 0 l 1
 605.529296875 0 l 1
 540.739257812 0 l 1
 533.241210938 0 l 1
 525.744140625 0 l 1
 525.741210938 7.498046875 l 1
 525.739257812 14.7060546875 l 1
 525.649414062 276.55078125 l 2
 525.649414062 357.990234375 496.762695312 381.379882812 463.149414062 381.379882812 c 0
 418.577148438 381.379882812 373.399414062 350.750976562 373.399414062 292.723632812 c 2
 373.399414062 14.7109375 l 1
 373.399414062 7.5 l 1
 373.399414062 0 l 1
 365.899414062 0 l 1
 358.399414062 0 l 1
 293.529296875 0 l 1
 286.029296875 0 l 1
 278.529296875 0 l 1
 278.529296875 7.5 l 1
 278.529296875 14.7109375 l 1
 278.529296875 286.16015625 l 2
 278.529296875 346.481445312 248.336914062 381.379882812 189.729492188 381.379882812 c 0xdc
 144.05078125 381.379882812 94.7890625 342.643554688 94.7890625 298.25 c 2
 94.7890625 14.7109375 l 1
 94.7890625 7.5 l 1
 94.7890625 0 l 1
 87.2890625 0 l 1
 79.7890625 0 l 1
 15 0 l 1
 7.5 0 l 1
 0 0 l 1
 0 7.5 l 1
 0 14.732421875 l 1
 0 406.307617188 l 1
 0 413.540039062 l 1
 0 421.040039062 l 1
 7.5 421.040039062 l 1
 15 421.040039062 l 1
 79.7890625 421.040039062 l 1
 87.2890625 421.040039062 l 1
 94.7890625 421.040039062 l 1xbc
 94.7890625 413.540039062 l 1
 94.7890625 406.040039062 l 1
 94.7890625 392.962890625 l 1
 130.641601562 421.923828125 166.986328125 435.950195312 205.559570312 435.950195312 c 0
 251.005859375 435.950195312 302.19921875 418.416015625 343.80078125 366.81640625 c 1
 379.495117188 414.53125 425.3046875 435.950195312 470.6796875 435.950195312 c 0xdc
EndSplineSet
EndChar

StartChar: n
Encoding: 58 110 56
Width: 436
VWidth: 0
Flags: W
HStem: 0 21G<1 95.79 279.53 374.4> 383.63 52.3203<129.542 253.894> 401.04 20G<1 95.79>
VStem: 1 94.79<0 350.142 395.888 421.04> 279.53 94.8701<0 355.777>
LayerCount: 2
Fore
SplineSet
95.7900390625 395.887695312 m 1xb8
 131.385742188 423.893554688 168.51953125 435.950195312 206.560546875 435.950195312 c 0
 255.612304688 435.950195312 374.400390625 408.892578125 374.400390625 272.96875 c 2
 374.400390625 14.74609375 l 1
 374.400390625 7.5 l 1
 374.400390625 0 l 1
 366.900390625 0 l 1
 359.400390625 0 l 1
 294.530273438 0 l 1
 287.030273438 0 l 1
 279.530273438 0 l 1
 279.530273438 7.5 l 1
 279.530273438 14.7119140625 l 1
 279.530273438 289.319335938 l 2
 279.530273438 349.635742188 249.526367188 383.629882812 190.73046875 383.629882812 c 0xd8
 144.840820312 383.629882812 95.7900390625 345.701171875 95.7900390625 301.499023438 c 2
 95.7900390625 14.7119140625 l 1
 95.7900390625 7.5 l 1
 95.7900390625 0 l 1
 88.2900390625 0 l 1
 80.7900390625 0 l 1
 16 0 l 1
 8.5 0 l 1
 1 0 l 1
 1 7.5 l 1
 1 14.732421875 l 1
 1 406.307617188 l 1
 1 413.540039062 l 1
 1 421.040039062 l 1
 8.5 421.040039062 l 1
 16 421.040039062 l 1
 80.7900390625 421.040039062 l 1
 88.2900390625 421.040039062 l 1
 95.7900390625 421.040039062 l 1
 95.7900390625 413.540039062 l 1
 95.7900390625 406.040039062 l 1
 95.7900390625 395.887695312 l 1xb8
EndSplineSet
EndChar

StartChar: o
Encoding: 59 111 57
Width: 436
VWidth: 0
Flags: W
HStem: -16.0703 49.96<154.389 249.239> 392.28 43.6699<150.569 254.898>
VStem: 0 94.7305<108.166 318.337> 311.36 94.2002<112.377 323.881>
LayerCount: 2
Fore
SplineSet
197.98046875 -16.0703125 m 0
 56.259765625 -16.0703125 0 112.427734375 0 218.014648438 c 0
 0 310.18359375 56.845703125 435.950195312 203.049804688 435.950195312 c 0
 329.225585938 435.950195312 405.560546875 344.803710938 405.560546875 218.014648438 c 0
 405.560546875 124.37890625 359.409179688 -16.0703125 197.98046875 -16.0703125 c 0
311.360351562 216.490234375 m 0
 311.360351562 316.71875 268.171875 392.280273438 201.5703125 392.280273438 c 0
 133.16015625 392.280273438 94.73046875 305.443359375 94.73046875 216.490234375 c 0
 94.73046875 120.153320312 139.75 33.8896484375 208.990234375 33.8896484375 c 0
 256.399414062 33.8896484375 311.360351562 119.102539062 311.360351562 216.490234375 c 0
EndSplineSet
EndChar

StartChar: p
Encoding: 60 112 58
Width: 420
VWidth: 0
Flags: W
HStem: -200 21G<-1 92.0605> -4.00977 62.1299<105.766 249.896> 370.04 65.9102<104.903 242.803> 401.04 20G<-1 92.0605>
VStem: -1 93.0801<-200 7.5 73.836 355.518 405.805 421.04> 288.08 93.6602<107.21 316.794>
LayerCount: 2
Fore
SplineSet
92.080078125 92.15234375 m 1xec
 113.430664062 68.6298828125 140.341796875 58.1201171875 182.310546875 58.1201171875 c 0
 227.524414062 58.1201171875 288.080078125 73.388671875 288.080078125 202.325195312 c 0
 288.080078125 287.376953125 264.334960938 370.040039062 185.810546875 370.040039062 c 0
 132.365234375 370.040039062 114.797851562 359.983398438 92.060546875 339.0625 c 1
 92.080078125 92.15234375 l 1xec
92.060546875 413.540039062 m 1
 92.060546875 405.8046875 l 1
 123.13671875 428.625 155.307617188 435.950195312 186.669921875 435.950195312 c 0xec
 285.252929688 435.950195312 381.740234375 371.123046875 381.740234375 202.1953125 c 0
 381.740234375 68.3681640625 276.775390625 -4.009765625 183.719726562 -4.009765625 c 0
 145.319335938 -4.009765625 114.799804688 0.1484375 92.060546875 7.5 c 1
 92.060546875 -185 l 1
 92.060546875 -192.5 l 1
 92.060546875 -200 l 1
 84.560546875 -200 l 1
 77.060546875 -200 l 1
 14 -200 l 1
 6.5 -200 l 1
 -1 -200 l 1
 -1 -192.5 l 1
 -1 -185 l 1
 -1 406.223632812 l 1
 -1 413.540039062 l 1
 -1 421.040039062 l 1
 6.5 421.040039062 l 1
 14 421.040039062 l 1
 77.060546875 421.040039062 l 1
 84.560546875 421.040039062 l 1
 92.060546875 421.040039062 l 1xdc
 92.060546875 413.540039062 l 1
EndSplineSet
EndChar

StartChar: q
Encoding: 61 113 59
Width: 439
VWidth: 0
Flags: W
HStem: -200 21G<289.6 382.74> -4.00977 62.1299<131.838 276.034> 370.04 65.9102<138.932 276.225> 401.04 20G<289.689 382.74>
VStem: 0 93.6494<107.209 316.797> 289.649 93.0908<-200 7.5 74.5972 356.19 405.751 421.04>
LayerCount: 2
Fore
SplineSet
289.649414062 92.1552734375 m 1xec
 289.669921875 339.063476562 l 1
 265.28515625 361.500976562 248.91015625 370.040039062 195.919921875 370.040039062 c 0
 117.375976562 370.040039062 93.6494140625 287.393554688 93.6494140625 202.325195312 c 0
 93.6494140625 73.3876953125 154.206054688 58.1201171875 199.419921875 58.1201171875 c 0
 241.966796875 58.1201171875 269.842773438 70.345703125 289.649414062 92.1552734375 c 1xec
289.689453125 421.040039062 m 1xdc
 297.189453125 421.040039062 l 1
 304.689453125 421.040039062 l 1
 367.740234375 421.040039062 l 1
 375.240234375 421.040039062 l 1
 382.740234375 421.040039062 l 1xdc
 382.740234375 413.540039062 l 1
 382.740234375 406.223632812 l 1
 382.740234375 -185 l 1
 382.740234375 -192.5 l 1
 382.740234375 -200 l 1
 375.240234375 -200 l 1
 367.740234375 -200 l 1
 304.599609375 -200 l 1
 297.099609375 -200 l 1
 289.599609375 -200 l 1
 289.599609375 -192.5 l 1
 289.599609375 -185 l 1
 289.599609375 7.5 l 1
 265.74609375 -0.2861328125 235.966796875 -4.009765625 198.01953125 -4.009765625 c 0
 104.963867188 -4.009765625 0 68.3642578125 0 202.1953125 c 0
 0 371.12109375 96.4931640625 435.950195312 195.080078125 435.950195312 c 0xec
 226.662109375 435.950195312 261.256835938 426.5625 289.689453125 405.750976562 c 1
 289.689453125 413.540039062 l 1
 289.689453125 421.040039062 l 1xdc
EndSplineSet
EndChar

StartChar: r
Encoding: 62 114 60
Width: 293
VWidth: 0
Flags: W
HStem: 0 21G<-1 93.9102> 403.96 20G<-1 93.9102>
VStem: -1 94.9102<0 303.714 360.718 423.96>
LayerCount: 2
Fore
SplineSet
274.018554688 424.323242188 m 1
 272.685546875 417.946289062 l 1
 271.346679688 411.76953125 l 1
 264.331054688 380.529296875 l 1
 262.836914062 373.874023438 l 1
 261.310546875 367.080078125 l 1
 254.212890625 368.279296875 l 1
 247.026367188 369.494140625 l 2
 162.530273438 383.771484375 136.3046875 350.602539062 93.91015625 263.584960938 c 1
 93.91015625 14.7353515625 l 1
 93.91015625 7.5 l 1
 93.91015625 0 l 1
 86.41015625 0 l 1
 78.91015625 0 l 1
 14 0 l 1
 6.5 0 l 1
 -1 0 l 1
 -1 7.5 l 1
 -1 14.734375 l 1
 -1 409.225585938 l 1
 -1 416.459960938 l 1
 -1 423.959960938 l 1
 6.5 423.959960938 l 1
 14 423.959960938 l 1
 78.91015625 423.959960938 l 1
 86.41015625 423.959960938 l 1
 93.91015625 423.959960938 l 1
 93.91015625 416.459960938 l 1
 93.91015625 408.959960938 l 1
 93.91015625 360.717773438 l 1
 136.630859375 420.927734375 200.015625 451.044921875 261.764648438 428.748046875 c 2
 267.891601562 426.53515625 l 1
 274.018554688 424.323242188 l 1
EndSplineSet
EndChar

StartChar: s
Encoding: 63 115 61
Width: 349
VWidth: 0
Flags: W
HStem: -16.0703 49.8799<98.7663 219.047> 385.97 49.9805<96.4721 226.733>
VStem: 14.9697 71.4307<287.142 374.376> 241.41 69.0098<56.0283 147.632>
LayerCount: 2
Fore
SplineSet
86.400390625 329.913085938 m 0
 86.400390625 297.469726562 99.865234375 282.026367188 167.98046875 262.29296875 c 0
 258.390625 236.163085938 310.419921875 189.180664062 310.419921875 107.84375 c 0
 310.419921875 23.96875 235.836914062 -16.0703125 161.870117188 -16.0703125 c 0
 91.9091796875 -16.0703125 40.8662109375 23.748046875 11.85546875 74.2255859375 c 2
 11.267578125 75.2490234375 l 1
 10.6796875 76.271484375 l 1
 10.43359375 77.42578125 l 1
 10.1884765625 78.5791015625 l 2
 1.42578125 119.776367188 0.033203125 154.283203125 0.013671875 154.7578125 c 2
 -0.2880859375 161.912109375 l 1
 -0.58984375 169.067382812 l 1
 6.54296875 169.69921875 l 1
 13.6767578125 170.331054688 l 1
 13.6767578125 170.331054688 22.490234375 171.111328125 27.01171875 171.534179688 c 2
 34.37890625 172.223632812 l 1
 41.7451171875 172.9140625 l 1
 42.53515625 165.556640625 l 1
 43.32421875 158.200195312 l 2
 44.1064453125 150.918945312 45.384765625 137.541015625 45.62109375 135.719726562 c 0
 51.60546875 90.322265625 103.084960938 33.8095703125 160.580078125 33.8095703125 c 0
 191.62109375 33.8095703125 241.41015625 52.89453125 241.41015625 106.935546875 c 0
 241.41015625 145.459960938 215.950195312 157.455078125 140.982421875 180.00390625 c 0
 45.103515625 208.896484375 14.9697265625 263.125 14.9697265625 329.259765625 c 0
 14.9697265625 390.48046875 79.88671875 435.950195312 158.5 435.950195312 c 0
 214.637695312 435.950195312 240.998046875 421.935546875 272.661132812 394.799804688 c 2
 274.01953125 393.635742188 l 1
 275.376953125 392.47265625 l 1
 276.063476562 390.821289062 l 1
 276.75 389.170898438 l 2
 289.143554688 359.374023438 287.676757812 309.771484375 287.668945312 309.295898438 c 2
 287.602539062 301.98046875 l 1
 287.53515625 294.638671875 l 1
 280.193359375 294.549804688 l 1
 272.852539062 294.4609375 l 1
 272.852539062 294.4609375 265.139648438 294.37109375 259.908203125 294.20703125 c 2
 252.7265625 293.983398438 l 1
 245.545898438 293.759765625 l 1
 245.013671875 300.924804688 l 1
 244.481445312 308.08984375 l 2
 244.002929688 314.534179688 242.672851562 328.365234375 242.606445312 328.830078125 c 0
 234.1015625 372.149414062 210.578125 385.969726562 160.229492188 385.969726562 c 0
 116.426757812 385.969726562 86.400390625 372.1875 86.400390625 329.913085938 c 0
EndSplineSet
EndChar

StartChar: t
Encoding: 64 116 62
Width: 341
VWidth: 0
Flags: W
HStem: -16.0703 56.8008<181.152 247.33> 385.95 49.9795<-1 72.995 169.21 269.551>
VStem: 74.1602 95.0498<47.4655 385.95> 125.37 43.8398<451.601 540.95>
LayerCount: 2
Fore
SplineSet
310.80078125 108.280273438 m 1xe0
 310.80078125 100.780273438 l 1
 310.80078125 93.2998046875 l 2
 310.80078125 38.7509765625 281.126953125 -16.0703125 206.970703125 -16.0703125 c 0
 158.919921875 -16.0703125 124.532226562 -3.6572265625 97.7890625 32.5810546875 c 0
 69.4169921875 71.1064453125 74.16015625 118.64453125 74.16015625 182.860351562 c 2xe0
 74.244140625 385.950195312 l 1
 14 385.950195312 l 1
 6.5 385.950195312 l 1
 -1 385.950195312 l 1
 -1 393.450195312 l 1
 -1 400.950195312 l 1
 -1 414.790039062 l 1
 -1 422.290039062 l 1
 -1 429.790039062 l 1
 6.5 429.790039062 l 1
 14 429.790039062 l 1
 37.0107421875 429.790039062 l 2
 80.48046875 429.790039062 125.370117188 450.921875 125.370117188 503.030273438 c 2
 125.370117188 525.950195312 l 1
 125.370117188 533.450195312 l 1
 125.370117188 540.950195312 l 1
 132.870117188 540.950195312 l 1
 140.370117188 540.950195312 l 1
 154.209960938 540.950195312 l 1
 161.709960938 540.950195312 l 1
 169.209960938 540.950195312 l 1
 169.209960938 533.450195312 l 1
 169.209960938 525.950195312 l 1
 169.209960938 435.9296875 l 1xd0
 254.55078125 435.9296875 l 1
 262.05078125 435.9296875 l 1
 269.55078125 435.9296875 l 1
 269.55078125 428.4296875 l 1
 269.55078125 420.9296875 l 1
 269.55078125 400.950195312 l 1
 269.55078125 393.450195312 l 1
 269.55078125 385.950195312 l 1
 262.05078125 385.950195312 l 1
 254.55078125 385.950195312 l 1
 169.209960938 385.950195312 l 1
 169.209960938 138.936523438 l 2
 169.209960938 64.2685546875 188.504882812 40.73046875 205.330078125 40.73046875 c 0
 239.868164062 40.73046875 247.407226562 54.5634765625 253.555664062 80.9169921875 c 0
 253.817382812 81.9501953125 255.390625 88.939453125 257.021484375 96.458984375 c 2
 258.302734375 102.370117188 l 1
 259.584960938 108.280273438 l 1
 265.6328125 108.280273438 l 1
 271.680664062 108.280273438 l 1
 296.73828125 108.280273438 l 1
 303.30078125 108.280273438 l 1
 310.80078125 108.280273438 l 1xe0
EndSplineSet
EndChar

StartChar: u
Encoding: 65 117 63
Width: 426
VWidth: 0
Flags: W
HStem: -16.0703 54.3604<128.106 234.971> 0 21G<277.311 371.801> 401.04 20G<0 94.5703 277.32 371.801>
VStem: 0 94.5703<75.3388 421.04> 277.32 94.4805<0 37.4746 80.8366 421.04>
LayerCount: 2
Fore
SplineSet
371.80078125 421.040039062 m 1xb8
 371.80078125 413.540039062 l 1
 371.80078125 406.307617188 l 1
 371.80078125 14.732421875 l 1
 371.80078125 7.5 l 1
 371.80078125 0 l 1
 364.30078125 0 l 1
 356.80078125 0 l 1
 292.310546875 0 l 1
 284.810546875 0 l 1
 277.310546875 0 l 1x78
 277.310546875 7.5 l 1
 277.310546875 15 l 1
 277.310546875 37.474609375 l 1
 248.499023438 7.4423828125 215.98046875 -16.0703125 167.130859375 -16.0703125 c 0
 115.236328125 -16.0703125 0 30.4501953125 0 164.25 c 2
 0 406.29296875 l 1
 0 413.540039062 l 1
 0 421.040039062 l 1
 7.5 421.040039062 l 1
 15 421.040039062 l 1
 79.5703125 421.040039062 l 1
 87.0703125 421.040039062 l 1
 94.5703125 421.040039062 l 1
 94.5703125 413.540039062 l 1
 94.5703125 406.328125 l 1
 94.5703125 147.9453125 l 2
 94.5703125 86.138671875 127.131835938 38.2900390625 182.890625 38.2900390625 c 0
 225.419921875 38.2900390625 277.3203125 89.7978515625 277.3203125 135.82421875 c 2
 277.3203125 406.328125 l 1
 277.3203125 413.540039062 l 1
 277.3203125 421.040039062 l 1
 284.8203125 421.040039062 l 1
 292.3203125 421.040039062 l 1
 356.80078125 421.040039062 l 1
 364.30078125 421.040039062 l 1
 371.80078125 421.040039062 l 1xb8
EndSplineSet
EndChar

StartChar: v
Encoding: 66 118 64
Width: 422
VWidth: 0
Flags: W
HStem: 401.04 20G<-2.0791 102.276 334.14 387.571>
LayerCount: 2
Fore
SplineSet
335.731445312 421.040039062 m 1
 341.330078125 421.040039062 l 1
 346.9296875 421.040039062 l 1
 367.419921875 421.040039062 l 1
 377.446289062 421.040039062 l 1
 387.571289062 421.040039062 l 1
 384.62109375 411.68359375 l 1
 381.7890625 402.704101562 l 1
 253.109375 -5.3408203125 l 1
 251.534179688 -10.6884765625 l 1
 249.950195312 -16.0703125 l 1
 244.33984375 -16.0703125 l 1
 238.729492188 -16.0703125 l 1
 190.26953125 -16.0703125 l 1
 185.142578125 -16.0703125 l 1
 180.014648438 -16.0703125 l 1
 178.153320312 -11.29296875 l 1
 176.30859375 -6.5556640625 l 1
 6.0556640625 401.541015625 l 1
 2.0732421875 411.0859375 l 1
 -2.0791015625 421.040039062 l 1
 9.029296875 421.040039062 l 1
 20 421.040039062 l 1
 90.240234375 421.040039062 l 1
 95.314453125 421.040039062 l 1
 100.388671875 421.040039062 l 1
 102.276367188 416.330078125 l 1
 104.1640625 411.620117188 l 1
 235.659179688 83.4970703125 l 1
 332.548828125 410.303710938 l 1
 334.139648438 415.671875 l 1
 335.731445312 421.040039062 l 1
EndSplineSet
EndChar

StartChar: w
Encoding: 67 119 65
Width: 625
VWidth: 0
Flags: W
HStem: 401.04 20G<-2.0752 102.104 536.508 589.847>
LayerCount: 2
Fore
SplineSet
589.846679688 421.040039062 m 1
 586.8984375 411.684570312 l 1
 584.069335938 402.70703125 l 1
 455.479492188 -5.337890625 l 1
 453.90625 -10.6875 l 1
 452.322265625 -16.0703125 l 1
 446.7109375 -16.0703125 l 1
 441.099609375 -16.0703125 l 1
 392.629882812 -16.0703125 l 1
 387.501953125 -16.0703125 l 1
 382.373046875 -16.0703125 l 1
 380.512695312 -11.291015625 l 1
 378.65234375 -6.5126953125 l 1
 306.897460938 177.779296875 l 1
 253.012695312 -5.361328125 l 1
 251.446289062 -10.6875 l 1
 249.862304688 -16.0703125 l 1
 244.250976562 -16.0703125 l 1
 238.639648438 -16.0703125 l 1
 190.1796875 -16.0703125 l 1
 185.051757812 -16.0703125 l 1
 179.922851562 -16.0703125 l 1
 178.0625 -11.291015625 l 1
 176.217773438 -6.552734375 l 1
 6.0546875 401.54296875 l 1
 2.0751953125 411.086914062 l 1
 -2.0751953125 421.040039062 l 1
 9.03125 421.040039062 l 1
 20 421.040039062 l 1
 90.0693359375 421.040039062 l 1
 95.142578125 421.040039062 l 1
 100.216796875 421.040039062 l 1
 102.104492188 416.331054688 l 1
 103.9921875 411.62109375 l 1
 235.557617188 83.4296875 l 1
 309.38671875 332.739257812 l 1
 315.514648438 353.430664062 l 1
 321.641601562 374.12109375 l 1
 329.666992188 354.090820312 l 1
 337.693359375 334.059570312 l 1
 438.112304688 83.4384765625 l 1
 534.916992188 410.299804688 l 1
 536.5078125 415.669921875 l 1
 538.098632812 421.040039062 l 1
 543.69921875 421.040039062 l 1
 549.299804688 421.040039062 l 1
 569.69921875 421.040039062 l 1
 579.723632812 421.040039062 l 1
 589.846679688 421.040039062 l 1
EndSplineSet
EndChar

StartChar: x
Encoding: 68 120 66
Width: 482
VWidth: 0
Flags: W
HStem: 0 21G<-1.32617 63.1318 343.853 465.267> 401.04 20G<21.9482 140.966 360.424 424.8>
LayerCount: 2
Fore
SplineSet
414.758789062 409.208007812 m 1
 405.142578125 397.875976562 l 1
 275.0390625 244.565429688 l 1
 447.618164062 22.689453125 l 1
 456.250976562 11.5908203125 l 1
 465.266601562 0 l 1
 450.25390625 0 l 1
 435.549804688 0 l 1
 353.780273438 0 l 1
 349.938476562 0 l 1
 346.09765625 0 l 1
 343.852539062 3.1171875 l 1
 341.608398438 6.234375 l 1
 210.973632812 187.642578125 l 1
 65.3837890625 5.6298828125 l 1
 63.1318359375 2.8154296875 l 1
 60.8798828125 0 l 1
 57.275390625 0 l 1
 53.669921875 0 l 1
 30 0 l 1
 14.5087890625 0 l 1
 -1.326171875 0 l 1
 8.7060546875 12.275390625 l 1
 18.314453125 24.03125 l 1
 179.254882812 220.956054688 l 1
 38.9814453125 413.5 l 1
 30.650390625 417.188476562 l 1
 21.9482421875 421.040039062 l 1
 36.7080078125 421.040039062 l 1
 51.169921875 421.040039062 l 1
 131.040039062 421.040039062 l 1
 134.880859375 421.040039062 l 1
 138.720703125 421.040039062 l 1
 140.965820312 417.923828125 l 1
 143.2109375 414.807617188 l 1
 244.772460938 273.833984375 l 1
 358.171875 415.416992188 l 1
 360.423828125 418.228515625 l 1
 362.67578125 421.040039062 l 1
 366.27734375 421.040039062 l 1
 369.879882812 421.040039062 l 1
 393.459960938 421.040039062 l 1
 408.958007812 421.040039062 l 1
 424.799804688 421.040039062 l 1
 414.758789062 409.208007812 l 1
EndSplineSet
EndChar

StartChar: y
Encoding: 69 121 67
Width: 425
VWidth: 0
Flags: W
HStem: -200 49.5498<-2.57882 105.59> 401.04 20G<-0.922852 98.9424 350.252 403.948>
LayerCount: 2
Fore
SplineSet
199.854492188 -61.158203125 m 0
 190.197265625 -85.462890625 177.081054688 -121.291992188 157.721679688 -148.043945312 c 0
 130.510742188 -185.641601562 88.3173828125 -200 56.2001953125 -200 c 0
 22.009765625 -200 -21.6162109375 -189.546875 -47.822265625 -153.9296875 c 2
 -52.1982421875 -147.981445312 l 1
 -56.5751953125 -142.033203125 l 1
 -50.6953125 -137.565429688 l 1
 -44.81640625 -133.09765625 l 1
 -29.236328125 -121.2578125 l 1
 -24.0400390625 -117.30859375 l 1
 -18.84375 -113.360351562 l 1
 -14.21484375 -117.9609375 l 1
 -9.5859375 -122.560546875 l 2
 10.8974609375 -142.918945312 30.1728515625 -150.450195312 51.0703125 -150.450195312 c 0
 72.6787109375 -150.450195312 88.0205078125 -144.348632812 105.758789062 -128.537109375 c 0
 123.081054688 -113.908203125 158.931640625 -34.2939453125 190.560546875 40.8447265625 c 1
 9.498046875 400.349609375 l 1
 4.373046875 410.525390625 l 1
 -0.9228515625 421.040039062 l 1
 11.107421875 421.040039062 l 1
 23 421.040039062 l 1
 87.740234375 421.040039062 l 1
 92.2900390625 421.040039062 l 1
 96.8408203125 421.040039062 l 1
 98.9423828125 417.004882812 l 1
 101.043945312 412.96875 l 1
 237.536132812 150.900390625 l 1
 348.3125 411.890625 l 1
 350.251953125 416.4609375 l 1
 352.19140625 421.030273438 l 1
 357.15625 421.030273438 l 1
 362.120117188 421.030273438 l 1
 381.5703125 421.030273438 l 1
 392.6953125 421.030273438 l 1
 403.948242188 421.030273438 l 1
 399.6171875 410.95703125 l 1
 395.4453125 401.25390625 l 2
 382.12109375 370.267578125 358.271484375 314.653320312 352.263671875 300.2421875 c 0
 318.747070312 220.743164062 233.022460938 17.2060546875 199.854492188 -61.158203125 c 0
EndSplineSet
EndChar

StartChar: z
Encoding: 70 122 68
Width: 406
VWidth: 0
Flags: W
HStem: 0 48.8945<119.938 353.75> 371.16 49.8799<1 216.133>
LayerCount: 2
Fore
SplineSet
353.75 48.8203125 m 1
 353.75 41.326171875 l 1
 353.75 34.0947265625 l 1
 353.75 14.99609375 l 1
 353.75 7.5 l 1
 353.75 0 l 1
 346.25 0 l 1
 338.75 0 l 1
 6.7890625 0 l 1
 -6.3193359375 0 l 1
 -19.6875 0 l 1
 -12.720703125 3.8388671875 l 1
 -6.0771484375 7.5 l 1
 216.1328125 371.16015625 l 1
 16 371.16015625 l 1
 8.5 371.16015625 l 1
 1 371.16015625 l 1
 1 378.66015625 l 1
 1 386.16015625 l 1
 1 406.040039062 l 1
 1 413.540039062 l 1
 1 421.040039062 l 1
 8.5 421.040039062 l 1
 16 421.040039062 l 1
 331.169921875 421.040039062 l 1
 344.334960938 421.040039062 l 1
 357.743164062 421.040039062 l 1
 350.724609375 417.186523438 l 1
 344.01171875 413.5 l 1
 119.9375 48.89453125 l 1
 338.754882812 48.8251953125 l 1
 346.251953125 48.8232421875 l 1
 353.75 48.8203125 l 1
EndSplineSet
EndChar

StartChar: exclam
Encoding: 1 33 69
Width: 170
VWidth: 0
Flags: W
HStem: -16.0703 100.09<7.4742 89.097> 613.52 20G<1 95.6201>
VStem: 1 94.6201<-8.82368 76.775 359.379 633.52>
LayerCount: 2
Fore
SplineSet
95.6201171875 633.51953125 m 1
 95.6201171875 626.01953125 l 1
 95.6201171875 618.51953125 l 2
 95.6201171875 403.98828125 73.216796875 128.635742188 73.201171875 128.436523438 c 2
 72.640625 121.54296875 l 1
 72.0810546875 114.650390625 l 1
 65.166015625 114.650390625 l 1
 58.25 114.650390625 l 1
 38.3701171875 114.650390625 l 1
 31.4541015625 114.650390625 l 1
 24.5380859375 114.650390625 l 1
 23.978515625 121.543945312 l 1
 23.4189453125 128.4375 l 2
 23.4033203125 128.63671875 1 404.168945312 1 618.51953125 c 2
 1 626.01953125 l 1
 1 633.51953125 l 1
 8.5 633.51953125 l 1
 16 633.51953125 l 1
 80.6201171875 633.51953125 l 1
 88.1201171875 633.51953125 l 1
 95.6201171875 633.51953125 l 1
48.2900390625 -16.0703125 m 0
 20.6484375 -16.0703125 -1.759765625 6.3349609375 -1.759765625 33.98046875 c 0
 -1.759765625 61.615234375 20.6474609375 84.01953125 48.2900390625 84.01953125 c 0
 75.9228515625 84.01953125 98.330078125 61.6171875 98.330078125 33.98046875 c 0
 98.330078125 6.3408203125 75.9296875 -16.0703125 48.2900390625 -16.0703125 c 0
EndSplineSet
EndChar

StartChar: emdash
Encoding: 73 8212 71
Width: 702
VWidth: 0
Flags: W
HStem: 153.729 94.5703<0.740234 618>
LayerCount: 2
Fore
SplineSet
0.740234375 248.298828125 m 1
 8.240234375 248.298828125 l 1
 15.740234375 248.298828125 l 1
 603 248.298828125 l 1
 610.5 248.298828125 l 1
 618 248.298828125 l 1
 618 240.798828125 l 1
 618 233.298828125 l 1
 618 168.728515625 l 1
 618 161.228515625 l 1
 618 153.728515625 l 1
 610.5 153.728515625 l 1
 603 153.728515625 l 1
 15.740234375 153.728515625 l 1
 8.240234375 153.728515625 l 1
 0.740234375 153.728515625 l 1
 0.740234375 161.228515625 l 1
 0.740234375 168.728515625 l 1
 0.740234375 233.298828125 l 1
 0.740234375 240.798828125 l 1
 0.740234375 248.298828125 l 1
EndSplineSet
EndChar

StartChar: quotedblleft
Encoding: 71 8220 72
Width: 344
VWidth: 0
Flags: W
HStem: 467.74 163.924<42.4133 85.8623 197.799 239>
VStem: 0 138.1<486.805 587.008> 155.34 138.1<486.806 587.005>
LayerCount: 2
Fore
SplineSet
125.233398438 615.349609375 m 1
 115.575195312 611.967773438 l 1
 108.537109375 609.502929688 l 2
 102.282226562 607.3125 92.1162109375 603.715820312 90.8115234375 603.243164062 c 0
 90.0966796875 602.973632812 89.49609375 602.720703125 89.49609375 602.720703125 c 1
 117.981445312 593.772460938 138.08984375 567.69921875 138.099609375 536.771484375 c 0
 138.099609375 498.655273438 107.165039062 467.740234375 69.0498046875 467.740234375 c 0
 31.4853515625 467.740234375 0 493.455078125 0 526.297851562 c 0
 0 543.150390625 0.72265625 554.9296875 7.9599609375 572.841796875 c 0
 20.2177734375 603.069335938 54.4091796875 616.827148438 85.8623046875 631.6640625 c 2
 92.44140625 635.359375 l 1
 101 640 l 1
 107 643 l 1
 125.233398438 615.349609375 l 1
280.577148438 615.348632812 m 1
 270.916992188 611.965820312 l 1
 263.876953125 609.500976562 l 2
 257.622070312 607.311523438 247.455078125 603.713867188 246.151367188 603.241210938 c 0
 245.434570312 602.971679688 244.837890625 602.720703125 244.837890625 602.720703125 c 1
 273.331054688 593.770507812 293.439453125 567.6953125 293.439453125 536.771484375 c 0
 293.439453125 498.657226562 262.515625 467.740234375 224.389648438 467.740234375 c 0
 186.825195312 467.740234375 155.33984375 493.455078125 155.33984375 526.297851562 c 0
 155.33984375 543.150390625 156.0390625 554.938476562 163.299804688 572.841796875 c 0
 175.557617188 603.069335938 207.546875 616.163085938 239 631 c 2
 247.78125 635.359375 l 1
 261 642 l 1
 280.577148438 615.348632812 l 1
EndSplineSet
EndChar

StartChar: quotedblright
Encoding: 72 8221 73
Width: 323
VWidth: 0
Flags: W
HStem: 462.137 171.383
VStem: 0 138.1<524.29 615.557> 155.34 138.1<524.287 615.557>
LayerCount: 2
Fore
SplineSet
168.205078125 498.202148438 m 1
 177.86328125 501.302734375 l 1
 184.90234375 503.5625 l 2
 191.157226562 505.5703125 201.32421875 508.868164062 202.627929688 509.301757812 c 0
 203.342773438 509.547851562 203.943359375 509.779296875 203.943359375 509.779296875 c 1
 175.458007812 517.983398438 155.349609375 541.884765625 155.33984375 570.237304688 c 0
 155.33984375 605.178710938 186.274414062 633.51953125 224.389648438 633.51953125 c 0
 261.954101562 633.51953125 293.439453125 607.8046875 293.439453125 574.961914062 c 0
 293.439453125 558.109375 292.739796544 546.3217451 285.479492188 528.41796875 c 0
 273.221679688 498.190429688 243.097265625 486.548632812 212 471 c 2
 202 466 l 1
 194.299804688 462.13671875 l 1
 168.205078125 498.202148438 l 1
14 499 m 1
 22.521484375 501.302734375 l 1
 29.5625 503.5625 l 2
 35.8173828125 505.5703125 45.984375 508.868164062 47.2880859375 509.301757812 c 0
 48.0048828125 509.548828125 48.6015625 509.779296875 48.6015625 509.779296875 c 1
 20.1083984375 517.983398438 0 541.887695312 0 570.237304688 c 0
 0 605.176757812 30.923828125 633.51953125 69.0498046875 633.51953125 c 0
 106.614257812 633.51953125 138.099609375 607.8046875 138.099609375 574.962890625 c 0
 138.099609375 558.109375 137.400549498 546.322480198 130.139648438 528.41796875 c 0
 117.889648438 498.2109375 91.5234367861 486.549278517 60 472 c 2
 47 466 l 1
 38 462 l 1
 14 499 l 1
EndSplineSet
EndChar

StartChar: quoteleft
Encoding: 74 8216 74
Width: 165
VWidth: 0
Flags: W
HStem: 467.74 175.26
VStem: 0 138.1<486.806 586.915>
LayerCount: 2
Fore
SplineSet
125.237304688 615.348632812 m 1
 115.577148438 611.965820312 l 1
 108.537109375 609.500976562 l 2
 102.282226562 607.311523438 92.115234375 603.713867188 90.8115234375 603.241210938 c 0
 90.0966796875 602.97265625 89.49609375 602.719726562 89.49609375 602.719726562 c 1
 117.982421875 593.771484375 138.099609375 567.697265625 138.099609375 536.771484375 c 0
 138.099609375 498.657226562 107.17578125 467.740234375 69.0498046875 467.740234375 c 0
 31.4853515625 467.740234375 0 493.455078125 0 526.297851562 c 0
 0 543.150390625 0.69921875 554.938476562 7.9599609375 572.841796875 c 0
 20.2177734375 603.069335938 52.880859375 614.936523438 83 631 c 2
 98 639 l 1
 106 643 l 1
 125.237304688 615.348632812 l 1
EndSplineSet
EndChar

StartChar: quoteright
Encoding: 75 8217 75
Width: 156
VWidth: 0
Flags: W
HStem: 462.137 171.383
VStem: -2 138.1<524.302 615.557>
LayerCount: 2
Fore
SplineSet
10.8603515625 498.202148438 m 1
 20.521484375 501.302734375 l 1
 27.5625 503.5625 l 2
 33.8173828125 505.5703125 43.984375 508.868164062 45.2880859375 509.301757812 c 0
 46.0029296875 509.547851562 46.603515625 509.779296875 46.603515625 509.779296875 c 1
 18.1171875 517.982421875 -2 541.885742188 -2 570.237304688 c 0
 -2 605.178710938 28.9345703125 633.51953125 67.0498046875 633.51953125 c 0
 104.614257812 633.51953125 136.099609375 607.8046875 136.099609375 574.962890625 c 0
 136.099609375 558.109375 135.400390625 546.322265625 128.139648438 528.41796875 c 0
 115.889648438 498.2109375 89.927734375 488.463867188 59 473 c 2
 47 467 l 1
 36.9599609375 462.13671875 l 1
 10.8603515625 498.202148438 l 1
EndSplineSet
EndChar

StartChar: endash
Encoding: 76 8211 76
Width: 456
VWidth: 0
Flags: W
HStem: 153.729 94.5703<0 371.49>
LayerCount: 2
Fore
SplineSet
0 248.298828125 m 1
 7.5 248.298828125 l 1
 15 248.298828125 l 1
 356.490234375 248.298828125 l 1
 363.990234375 248.298828125 l 1
 371.490234375 248.298828125 l 1
 371.490234375 240.798828125 l 1
 371.490234375 233.298828125 l 1
 371.490234375 168.728515625 l 1
 371.490234375 161.228515625 l 1
 371.490234375 153.728515625 l 1
 363.990234375 153.728515625 l 1
 356.490234375 153.728515625 l 1
 15 153.728515625 l 1
 7.5 153.728515625 l 1
 0 153.728515625 l 1
 0 161.228515625 l 1
 0 168.728515625 l 1
 0 233.298828125 l 1
 0 240.798828125 l 1
 0 248.298828125 l 1
EndSplineSet
EndChar

StartChar: f_f
Encoding: 77 64256 77
Width: 548
VWidth: 0
Flags: W
HStem: 0 21G<68.9717 163.38 269.641 364.05> 383.54 49.8701<0 68.8828 163.38 269.55 364.05 446.859> 583.4 50.1191<172.681 255.364 372.058 451.419>
VStem: 68.9697 94.4102<0 383.54 433.41 578.956> 269.64 94.4102<0 383.54 433.41 544.71>
LayerCount: 2
Fore
SplineSet
163.379882812 383.540039062 m 1
 163.379882812 14.7119140625 l 1
 163.379882812 7.5 l 1
 163.379882812 0 l 1
 155.879882812 0 l 1
 148.379882812 0 l 1
 83.9697265625 0 l 1
 76.4716796875 0 l 1
 68.97265625 0 l 1
 68.9716796875 7.498046875 l 1
 68.9697265625 14.708984375 l 1
 68.8828125 383.540039062 l 1
 15 383.540039062 l 1
 7.5 383.540039062 l 1
 0 383.540039062 l 1
 0 398.51953125 l 1
 0 413.5 l 1
 0 418.41015625 l 1
 0 425.91015625 l 1
 0 433.41015625 l 1
 7.5 433.41015625 l 1
 15 433.41015625 l 1
 68.8896484375 433.41015625 l 1
 68.8896484375 494.169921875 l 2
 68.8896484375 580.59375 109.016601562 633.51953125 197.75 633.51953125 c 0
 246.689453125 633.51953125 284.478515625 620.658203125 309.276367188 605.637695312 c 1
 332.629882812 625.6171875 361.374023438 633.51953125 398.409179688 633.51953125 c 0
 469.661132812 633.51953125 512.38671875 606.215820312 529.924804688 578.111328125 c 2
 533.934570312 571.685546875 l 1
 537.944335938 565.260742188 l 1
 531.479492188 561.313476562 l 1
 525.015625 557.3671875 l 1
 491.17578125 536.70703125 l 1
 485.711914062 533.372070312 l 1
 480.249023438 530.036132812 l 1
 476.096679688 534.907226562 l 1
 471.944335938 539.779296875 l 2
 439.900390625 577.370117188 427.043945312 583.400390625 401.080078125 583.400390625 c 0
 371.420898438 583.400390625 364.049804688 553.299804688 364.049804688 494.169921875 c 2
 364.049804688 433.41015625 l 1
 431.859375 433.41015625 l 1
 439.359375 433.41015625 l 1
 446.859375 433.41015625 l 1
 446.859375 425.91015625 l 1
 446.859375 418.41015625 l 1
 446.859375 413.5 l 1
 446.859375 398.51953125 l 1
 446.859375 383.540039062 l 1
 439.359375 383.540039062 l 1
 431.859375 383.540039062 l 1
 364.049804688 383.540039062 l 1
 364.049804688 14.7119140625 l 1
 364.049804688 7.5 l 1
 364.049804688 0 l 1
 356.549804688 0 l 1
 349.049804688 0 l 1
 284.639648438 0 l 1
 277.140625 0 l 1
 269.642578125 0 l 1
 269.640625 7.4990234375 l 1
 269.639648438 14.708984375 l 1
 269.5625 383.540039062 l 1
 163.379882812 383.540039062 l 1
269.549804688 433.41015625 m 1
 269.549804688 494.169921875 l 2
 269.549804688 512.782226562 271.783203125 531.55859375 275.038085938 545.360351562 c 1
 242.133789062 574.36328125 223.534179688 583.400390625 200.399414062 583.400390625 c 0
 170.741210938 583.400390625 163.369140625 553.299804688 163.369140625 494.169921875 c 2
 163.369140625 433.41015625 l 1
 269.549804688 433.41015625 l 1
EndSplineSet
LCarets2: 1 231
Ligature2: "'liga' Standard Ligatures in Latin lookup 0-1" f f
EndChar

StartChar: f_i
Encoding: 78 64257 78
Width: 463
VWidth: 0
Flags: W
HStem: 0 21G<68.9717 163.38 269.37 363.77> 383 50.4199<0 68.8799 163.38 269.37> 583.41 50.1201<176.198 261.678>
VStem: 68.9697 94.4102<0 383 433.42 574.06> 269.37 94.3994<0 383>
LayerCount: 2
Fore
SplineSet
363.76953125 0 m 1
 356.26953125 0 l 1
 348.779296875 0 l 1
 284.370117188 0 l 1
 276.870117188 0 l 1
 269.370117188 0 l 1
 269.370117188 7.5 l 1
 269.370117188 15 l 1
 269.370117188 383 l 1
 163.379882812 383 l 1
 163.379882812 15 l 1
 163.379882812 7.5 l 1
 163.379882812 0 l 1
 155.879882812 0 l 1
 148.379882812 0 l 1
 83.9697265625 0 l 1
 76.4716796875 0 l 1
 68.97265625 0 l 1
 68.9716796875 7.498046875 l 1
 68.9697265625 14.9970703125 l 1
 68.8828125 383 l 1
 15 383 l 1
 7.5 383 l 1
 0 383 l 1
 0 384.852539062 l 1
 0 385.693359375 l 1
 0 387.919921875 l 1
 0 395.419921875 l 1
 0 433.419921875 l 1
 7.5 433.419921875 l 1
 15 433.419921875 l 1
 68.8798828125 433.419921875 l 1
 68.8798828125 494.1796875 l 2
 68.8798828125 581.92578125 117.247070312 633.530273438 205.109375 633.530273438 c 0
 276.098632812 633.530273438 322.896484375 606.818359375 340.805664062 578.12109375 c 2
 344.815429688 571.6953125 l 1
 348.825195312 565.270507812 l 1
 342.360351562 561.323242188 l 1
 335.896484375 557.376953125 l 1
 302.055664062 536.716796875 l 1
 296.590820312 533.380859375 l 1
 291.126953125 530.044921875 l 1
 286.974609375 534.91796875 l 1
 282.822265625 539.790039062 l 2
 251.391601562 576.672851562 234.116210938 583.41015625 207.779296875 583.41015625 c 0
 176.907226562 583.41015625 163.370117188 550.875976562 163.370117188 494.1796875 c 2
 163.370117188 433.419921875 l 1
 348.76953125 433.419921875 l 1
 356.26953125 433.419921875 l 1
 363.76953125 433.419921875 l 1
 363.76953125 395.419921875 l 1
 363.76953125 387.919921875 l 1
 363.76953125 13.8310546875 l 1
 363.76953125 7.5 l 1
 363.76953125 0 l 1
EndSplineSet
EndChar

StartChar: f_l
Encoding: 79 64258 79
Width: 439
VWidth: 0
Flags: W
HStem: 0 21G<68.9717 163.409 269.359 363.68> 383 50.4102<0 68.8799 163.409 246.22> 583.4 50.1299<174.27 262.069>
VStem: 68.9697 94.4395<0 383 433.42 576.398> 269.359 94.3203<0 566.604>
LayerCount: 2
Fore
SplineSet
269.359375 554.885742188 m 1
 244.94921875 582.572265625 226.870117188 583.400390625 206.19921875 583.400390625 c 0
 185.80859375 583.400390625 163.409179688 571.874023438 163.409179688 494.169921875 c 2
 163.409179688 433.41015625 l 1
 231.189453125 433.41015625 l 1
 238.719726562 433.41015625 l 1
 246.219726562 433.41015625 l 1
 246.219726562 395.41015625 l 1
 246.219726562 387.91015625 l 1
 246.219726562 385.688476562 l 1
 246.219726562 384.849609375 l 1
 246.219726562 383 l 1
 238.719726562 383 l 1
 231.189453125 383 l 1
 163.409179688 383 l 1
 163.409179688 15 l 1
 163.409179688 7.5 l 1
 163.409179688 0 l 1
 155.909179688 0 l 1
 148.379882812 0 l 1
 84 0 l 1
 76.4716796875 0 l 1
 68.97265625 0 l 1
 68.9716796875 7.498046875 l 1
 68.9697265625 14.9970703125 l 1
 68.8828125 383 l 1
 15 383 l 1
 7.5 383 l 1
 0 383 l 1
 0 384.852539062 l 1
 0 385.693359375 l 1
 0 387.919921875 l 1
 0 395.419921875 l 1
 0 433.419921875 l 1
 7.5 433.419921875 l 1
 15.029296875 433.419921875 l 1
 68.8798828125 433.419921875 l 1
 68.8798828125 494.1796875 l 2
 68.8798828125 546.909179688 85.15625 588.608398438 121.056640625 612.245117188 c 0
 142.991210938 626.697265625 170.784179688 633.530273438 203.540039062 633.530273438 c 0
 265.715820312 633.530273438 317.799804688 617.3671875 359.807617188 570.887695312 c 2
 361.744140625 568.74609375 l 1
 363.6796875 566.604492188 l 1
 363.6796875 563.716796875 l 1
 363.6796875 560.830078125 l 1
 363.6796875 14.8017578125 l 1
 363.6796875 7.5 l 1
 363.6796875 0 l 1
 356.1796875 0 l 1
 348.6796875 0 l 1
 284.359375 0 l 1
 276.859375 0 l 1
 269.359375 0 l 1
 269.359375 7.5 l 1
 269.359375 14.7998046875 l 1
 269.359375 554.885742188 l 1
EndSplineSet
EndChar

StartChar: f_f_i
Encoding: 80 64259 80
Width: 667
VWidth: 0
Flags: W
HStem: 0 21G<68.9922 163.4 273.571 367.98 473.97 568.38> 383 50.4102<0 68.8799 163.4 273.49 367.98 473.97> 583.4 50.1191<172.692 257.016 379.839 466.278>
VStem: 68.9902 94.4102<0 383 433.41 578.956> 273.57 94.4102<0 383 433.41 543.407> 473.97 94.4102<0 383>
LayerCount: 2
Fore
SplineSet
568.379882812 433.41015625 m 1
 568.379882812 425.91015625 l 1
 568.379882812 418.41015625 l 1
 568.379882812 14.736328125 l 1
 568.379882812 7.5 l 1
 568.379882812 0 l 1
 560.879882812 0 l 1
 553.379882812 0 l 1
 488.969726562 0 l 1
 481.469726562 0 l 1
 473.969726562 0 l 1
 473.969726562 7.5 l 1
 473.969726562 15 l 1
 473.969726562 383 l 1
 367.98046875 383 l 1
 367.98046875 15 l 1
 367.98046875 7.5 l 1
 367.98046875 0 l 1
 360.48046875 0 l 1
 352.98046875 0 l 1
 288.5703125 0 l 1
 281.071289062 0 l 1
 273.573242188 0 l 1
 273.571289062 7.4990234375 l 1
 273.5703125 14.9970703125 l 1
 273.493164062 383 l 1
 163.400390625 383 l 1
 163.400390625 15 l 1
 163.400390625 7.5 l 1
 163.400390625 0 l 1
 155.900390625 0 l 1
 148.400390625 0 l 1
 83.990234375 0 l 1
 76.4921875 0 l 1
 68.994140625 0 l 1
 68.9921875 7.498046875 l 1
 68.990234375 14.99609375 l 1
 68.8837890625 383 l 1
 15 383 l 1
 7.5 383 l 1
 0 383 l 1
 0 384.849609375 l 1
 0 385.688476562 l 1
 0 387.91015625 l 1
 0 395.41015625 l 1
 0 433.41015625 l 1
 7.5 433.41015625 l 1
 15 433.41015625 l 1
 68.8798828125 433.41015625 l 1
 68.8798828125 494.169921875 l 2
 68.8798828125 580.59375 109.006835938 633.51953125 197.740234375 633.51953125 c 0
 246.821289062 633.51953125 287.4453125 620.022460938 315.086914062 603.41015625 c 1
 339.685546875 624.44140625 370.926757812 633.51953125 409.709960938 633.51953125 c 0
 480.696289062 633.51953125 527.497070312 606.8203125 545.407226562 578.109375 c 2
 549.415039062 571.68359375 l 1
 553.422851562 565.258789062 l 1
 546.959960938 561.313476562 l 1
 540.497070312 557.3671875 l 1
 506.65625 536.70703125 l 1
 501.19140625 533.37109375 l 1
 495.727539062 530.03515625 l 1
 491.575195312 534.908203125 l 1
 487.422851562 539.780273438 l 2
 455.9921875 576.663085938 438.716796875 583.400390625 412.379882812 583.400390625 c 0
 381.508789062 583.400390625 367.98046875 550.869140625 367.98046875 494.169921875 c 2
 367.98046875 433.41015625 l 1
 553.379882812 433.41015625 l 1
 560.879882812 433.41015625 l 1
 568.379882812 433.41015625 l 1
200.430664062 583.400390625 m 0
 170.771484375 583.400390625 163.400390625 553.299804688 163.400390625 494.169921875 c 2
 163.400390625 433.41015625 l 1
 273.490234375 433.41015625 l 1
 273.490234375 494.169921875 l 2
 273.490234375 512.336914062 275.7578125 529.432617188 279.502929688 544.095703125 c 1
 244.911132812 574.767578125 223.069335938 583.400390625 200.430664062 583.400390625 c 0
EndSplineSet
EndChar

StartChar: f_f_l
Encoding: 81 64260 81
Width: 636
VWidth: 0
Flags: W
HStem: 0 21G<68.9814 163.39 273.562 368.06 474.02 568.34> 383 50.4102<0 68.8799 163.39 273.447 368.06 474.01> 583.4 50.1191<172.686 256.939 379.706 466.84>
VStem: 68.9795 94.4102<0 383 433.41 578.956> 273.56 94.5<0 383 433.41 543.142> 474.02 94.3203<0 383 433.41 566.444>
LayerCount: 2
Fore
SplineSet
68.8798828125 494.169921875 m 2
 68.8798828125 580.59375 109.006835938 633.51953125 197.740234375 633.51953125 c 0
 246.805664062 633.51953125 287.168945312 620.170898438 314.724609375 603.580078125 c 1
 343.026367188 628.1484375 374.018554688 633.51953125 412.620117188 633.51953125 c 0
 453.856445312 633.51953125 516.741210938 625.576171875 564.641601562 570.682617188 c 2
 566.491210938 568.563476562 l 1
 568.33984375 566.444335938 l 1
 568.33984375 563.6328125 l 1
 568.33984375 560.8203125 l 1
 568.33984375 14.8017578125 l 1
 568.33984375 7.5 l 1
 568.33984375 0 l 1
 560.83984375 0 l 1
 553.33984375 0 l 1
 489.01953125 0 l 1
 481.51953125 0 l 1
 474.01953125 0 l 1
 474.01953125 7.5 l 1
 474.01953125 15 l 1
 474.01953125 383 l 1
 368.059570312 383 l 1
 368.059570312 15 l 1
 368.059570312 7.5 l 1
 368.059570312 0 l 1
 360.559570312 0 l 1
 352.969726562 0 l 1
 288.650390625 0 l 1
 281.061523438 0 l 1
 273.5625 0 l 1
 273.561523438 7.498046875 l 1
 273.559570312 14.9970703125 l 1
 273.47265625 383 l 1
 163.389648438 383 l 1
 163.389648438 15 l 1
 163.389648438 7.5 l 1
 163.389648438 0 l 1
 155.889648438 0 l 1
 148.389648438 0 l 1
 83.9794921875 0 l 1
 76.4814453125 0 l 1
 68.9833984375 0 l 1
 68.9814453125 7.498046875 l 1
 68.9794921875 14.99609375 l 1
 68.8837890625 383 l 1
 15 383 l 1
 7.5 383 l 1
 0 383 l 1
 0 384.849609375 l 1
 0 385.688476562 l 1
 0 387.91015625 l 1
 0 395.41015625 l 1
 0 433.41015625 l 1
 7.5 433.41015625 l 1
 15 433.41015625 l 1
 68.8798828125 433.41015625 l 1
 68.8798828125 494.169921875 l 2
163.389648438 494.169921875 m 2
 163.389648438 433.41015625 l 1
 273.447265625 433.41015625 l 1
 273.293945312 488.384765625 272.67578125 519.619140625 279.314453125 544.303710938 c 1
 245.088867188 574.583007812 222.950195312 583.400390625 200.419921875 583.400390625 c 0
 170.76171875 583.400390625 163.389648438 553.299804688 163.389648438 494.169921875 c 2
474.009765625 433.41015625 m 1
 474.009765625 554.611328125 l 1
 450.174804688 582.241210938 432.78515625 583.379882812 412.120117188 583.379882812 c 0
 385.217773438 583.379882812 368.049804688 559.0546875 368.049804688 494.169921875 c 2
 368.049804688 433.41015625 l 1
 474.009765625 433.41015625 l 1
EndSplineSet
EndChar
